<svg width="1201" height="287" viewBox="0 0 1201 287" fill="none" xmlns="http://www.w3.org/2000/svg">
<path fill-rule="evenodd" clip-rule="evenodd" d="M349.578 182.409C349.707 190.835 349.818 198.112 349.435 228.941L349.336 237.21H316.065V163.562C316.065 137.989 295.624 117.184 270.5 117.184C244.948 117.184 224.159 137.989 224.159 163.562V237.21H191.563V163.562C191.563 120.001 226.975 84.5618 270.5 84.5618C314.024 84.5618 349.436 120.001 349.436 163.562C349.436 172.96 349.507 177.764 349.578 182.409ZM125.536 89.9134H158.131V163.561C158.131 207.121 122.722 242.562 79.1956 242.562C35.6709 242.562 0.261432 207.121 0.261432 163.561L0.240042 162.591C-0.173141 144.076 0.0234163 117.345 0.261432 98.1811L0.359042 89.9134H33.6304V163.561C33.6304 189.134 54.0716 209.939 79.1956 209.939C104.749 209.939 125.536 189.134 125.536 163.561V89.9134ZM462.066 209.939C436.514 209.939 415.726 189.134 415.726 163.561C415.726 137.989 436.514 117.184 462.066 117.184C487.618 117.184 508.407 137.989 508.407 163.561C508.407 189.134 487.618 209.939 462.066 209.939ZM462.066 84.5618C418.54 84.5618 383.13 120 383.13 163.561C383.13 207.121 418.54 242.562 462.066 242.562C505.591 242.562 541 207.121 541 163.561C541 120 505.591 84.5618 462.066 84.5618Z" fill="#242424"/>
<path d="M775.09 286.562C745.716 286.562 729.806 286.441 727.358 286.198C720.015 285.471 714.507 283.895 710.836 281.471C709.612 280.744 709 279.895 709 278.925C709 277.471 711.448 276.622 716.343 276.38C727.358 275.168 795.284 274.562 920.119 274.562C1107.37 274.562 1201 276.138 1201 279.289C1199.78 279.531 1198.55 279.895 1197.33 280.38C1197.33 280.622 1196.1 280.865 1193.66 281.107C1182.64 283.047 1104.93 284.501 960.507 285.471C876.06 286.198 814.254 286.562 775.09 286.562Z" fill="#242424"/>
<path d="M640.949 268.312C617.616 268.312 599.066 260.728 585.299 245.562C572.699 231.562 566.399 213.828 566.399 192.362C566.399 176.495 570.016 160.628 577.249 144.762C590.316 116.295 609.099 90.5118 633.599 67.4118C658.333 44.3118 689.016 25.5284 725.649 11.0618C743.149 4.06176 759.949 0.561768 776.049 0.561768C791.916 0.561768 804.749 3.9451 814.549 10.7118C824.349 17.2451 829.249 26.1118 829.249 37.3118C829.249 42.9118 828.316 48.8618 826.449 55.1618C824.816 61.2284 821.316 67.6451 815.949 74.4118C803.116 91.4451 788.066 105.328 770.799 116.062C761.933 121.195 753.649 124.695 745.949 126.562C738.483 128.428 731.366 129.362 724.599 129.362C708.033 129.362 698.466 121.428 695.899 105.562V104.162C695.899 101.128 697.649 99.6118 701.149 99.6118C704.416 99.6118 706.166 101.128 706.399 104.162C708.266 116.062 714.799 122.012 725.999 122.012C736.966 122.012 749.566 117.112 763.799 107.312C771.266 102.412 778.033 97.0451 784.099 91.2118C790.166 85.1451 795.766 78.7284 800.899 71.9618C811.866 56.7951 817.349 44.0784 817.349 33.8118C817.349 17.2451 805.566 8.96176 781.999 8.96176C765.899 8.96176 749.099 12.9284 731.599 20.8618C713.866 28.7951 697.416 38.0118 682.249 48.5118C667.083 58.7784 653.199 70.4451 640.599 83.5118C621.466 103.345 607.116 124.112 597.549 145.812C590.549 161.445 587.049 177.078 587.049 192.712C587.049 210.678 591.716 225.028 601.049 235.762C612.016 248.128 627.883 254.312 648.649 254.312C653.083 254.312 657.749 253.962 662.649 253.262C667.549 252.795 672.683 251.978 678.049 250.812C700.216 245.912 726.583 233.895 757.149 214.762C780.949 200.062 798.333 187.578 809.299 177.312C816.766 170.312 821.783 166.812 824.349 166.812C824.816 166.812 825.049 167.045 825.049 167.512C825.049 169.145 823.533 171.362 820.499 174.162C809.066 184.195 799.033 192.828 790.399 200.062C781.766 207.295 774.649 212.895 769.049 216.862C755.516 226.662 742.099 234.945 728.799 241.712C715.733 248.478 702.783 254.195 689.949 258.862C672.216 265.162 655.883 268.312 640.949 268.312Z" fill="#242424"/>
<path d="M848.499 235.062C843.366 235.528 838.466 234.245 833.799 231.212C829.133 227.945 826.799 224.328 826.799 220.362C826.799 213.128 833.683 199.245 847.449 178.712C862.616 155.845 870.199 142.662 870.199 139.162C870.199 137.062 869.033 136.012 866.699 136.012C860.633 136.012 848.966 144.995 831.699 162.962C821.433 173.228 811.749 184.312 802.649 196.212C793.783 207.878 785.383 220.245 777.449 233.312C776.983 233.778 775.699 234.012 773.599 234.012C763.333 234.012 758.666 232.612 759.599 229.812C763.566 219.078 768.583 207.062 774.649 193.762C780.716 180.462 787.949 165.645 796.349 149.312C824.116 95.6451 843.016 64.9618 853.049 57.2618C855.849 55.1618 859.699 54.1118 864.599 54.1118C872.766 54.1118 876.849 55.7451 876.849 59.0118C876.849 59.7118 876.149 60.6451 874.749 61.8118C844.183 84.4451 817.116 127.028 793.549 189.562C793.783 189.328 794.949 188.278 797.049 186.412C799.383 184.312 802.649 181.278 806.849 177.312C811.283 173.345 815.016 169.728 818.049 166.462C821.316 162.962 824.116 159.928 826.449 157.362C837.883 144.528 850.483 134.962 864.249 128.662C867.516 127.262 871.249 126.562 875.449 126.562C885.016 126.562 889.799 130.062 889.799 137.062C889.799 141.495 887.583 146.745 883.149 152.812C857.949 188.045 845.349 211.728 845.349 223.862C845.349 226.428 846.166 228.062 847.799 228.762C851.533 230.395 860.749 226.545 875.449 217.212C892.716 206.012 907.416 192.128 919.549 175.562C922.116 172.062 924.449 170.312 926.549 170.312C927.249 170.312 927.599 170.545 927.599 171.012C927.599 172.178 926.549 174.395 924.449 177.662C914.183 193.762 899.949 207.995 881.749 220.362C865.416 231.095 854.333 235.995 848.499 235.062Z" fill="#242424"/>
<path d="M928.309 234.362C921.543 234.362 915.593 232.728 910.459 229.462C903.693 224.795 900.309 218.028 900.309 209.162C900.309 199.595 904.393 187.928 912.559 174.162C923.526 156.195 939.626 140.445 960.859 126.912C966.226 123.412 971.593 121.662 976.959 121.662C983.959 121.662 988.976 123.878 992.009 128.312C993.876 130.878 994.809 133.795 994.809 137.062C994.809 146.862 986.876 157.595 971.009 169.262C966.343 172.528 961.326 175.562 955.959 178.362C950.826 180.928 945.226 182.795 939.159 183.962L924.109 187.112C918.509 197.145 915.709 205.545 915.709 212.312C915.709 221.645 921.193 226.312 932.159 226.312C940.793 226.312 951.293 222.695 963.659 215.462C980.226 205.895 994.459 192.595 1006.36 175.562C1008.23 172.762 1009.98 171.362 1011.61 171.362C1012.31 171.362 1012.66 171.828 1012.66 172.762C1012.66 173.928 1011.84 175.678 1010.21 178.012C987.576 212.078 962.026 230.745 933.559 234.012C932.626 234.245 931.693 234.362 930.759 234.362C930.059 234.362 929.243 234.362 928.309 234.362ZM928.309 181.162C934.843 181.162 943.243 178.245 953.509 172.412C967.976 164.245 978.126 153.745 983.959 140.912C985.593 137.645 986.409 134.962 986.409 132.862C986.409 130.762 985.593 129.712 983.959 129.712C980.926 129.712 974.742 133.445 965.409 140.912C958.643 146.745 951.993 153.045 945.459 159.812C939.159 166.345 933.093 173.345 927.259 180.812C927.026 181.045 927.376 181.162 928.309 181.162Z" fill="#242424"/>
<path d="M1019.04 248.712C1009.01 248.712 1003.99 242.528 1003.99 230.162C1003.99 219.895 1007.14 206.012 1013.44 188.512C1014.61 184.778 1017.29 178.012 1021.49 168.212C1025.69 158.178 1031.29 144.995 1038.29 128.662L1023.24 131.112C1020.21 131.578 1017.76 132.045 1015.89 132.512C1014.03 132.745 1012.63 132.745 1011.69 132.512C1010.99 132.045 1010.64 131.345 1010.64 130.412C1010.64 125.278 1011.69 122.478 1013.79 122.012L1043.19 117.812C1046.23 112.678 1049.84 106.728 1054.04 99.9618C1058.24 92.9618 1063.14 85.1451 1068.74 76.5118C1075.98 66.9451 1082.74 60.2951 1089.04 56.5618C1092.08 55.1618 1095.69 53.9951 1099.89 53.0618C1104.33 51.8951 1109.46 51.3118 1115.29 51.3118C1124.16 51.3118 1130.11 54.8118 1133.14 61.8118C1134.08 63.9118 1134.54 66.1284 1134.54 68.4618C1134.54 73.1284 1132.79 75.4618 1129.29 75.4618C1125.33 75.4618 1122.06 72.0784 1119.49 65.3118C1118.09 61.3451 1115.18 59.3618 1110.74 59.3618C1104.21 59.3618 1098.38 62.2784 1093.24 68.1118C1091.61 69.7451 1089.51 72.3118 1086.94 75.8118C1084.61 79.3118 1081.58 83.7451 1077.84 89.1118C1073.88 94.9451 1070.49 100.195 1067.69 104.862C1065.13 109.295 1063.03 113.145 1061.39 116.412C1062.09 116.178 1063.61 115.945 1065.94 115.712C1068.28 115.478 1071.31 115.245 1075.04 115.012C1077.84 114.778 1080.53 114.662 1083.09 114.662C1085.66 114.428 1088.11 114.312 1090.44 114.312C1100.24 114.312 1104.91 114.778 1104.44 115.712C1102.11 117.812 1086.13 121.428 1056.49 126.562C1049.26 139.162 1041.21 156.428 1032.34 178.362C1021.14 205.195 1015.54 224.212 1015.54 235.412C1015.54 239.845 1016.71 242.645 1019.04 243.812C1021.61 245.212 1022.89 246.028 1022.89 246.262C1022.89 247.895 1021.61 248.712 1019.04 248.712Z" fill="#242424"/>
<path d="M1045.35 257.912C1044.42 257.912 1043.95 257.562 1043.95 256.862C1043.95 253.828 1051.88 248.228 1067.75 240.062C1071.72 238.195 1075.33 236.328 1078.6 234.462C1081.87 232.362 1084.67 230.495 1087 228.862C1101.23 218.362 1108.35 209.262 1108.35 201.562C1108.35 195.728 1102.63 192.812 1091.2 192.812C1064.6 192.345 1051.3 186.512 1051.3 175.312C1051.3 170.412 1053.4 165.745 1057.6 161.312C1062.5 155.712 1070.67 150.345 1082.1 145.212C1094.47 139.612 1105.78 136.812 1116.05 136.812C1125.15 136.812 1132.03 139.028 1136.7 143.462C1138.8 145.562 1139.85 148.128 1139.85 151.162C1139.85 154.428 1138.8 157.345 1136.7 159.912C1134.6 162.478 1132.27 163.762 1129.7 163.762C1125.03 163.762 1122.47 160.612 1122 154.312C1122 149.878 1121.3 147.312 1119.9 146.612C1118.5 145.912 1114.77 145.562 1108.7 145.562C1101 145.562 1092.37 148.128 1082.8 153.262C1071.37 159.095 1066 166.095 1066.7 174.262C1067.17 178.928 1076.03 181.262 1093.3 181.262C1116.87 181.262 1128.65 186.978 1128.65 198.412C1128.65 210.778 1118.5 223.145 1098.2 235.512C1085.37 243.445 1069.73 250.445 1051.3 256.512C1048.73 257.445 1046.75 257.912 1045.35 257.912Z" fill="#242424"/>
</svg>
