<svg width="72" height="72" viewBox="0 0 72 72" fill="none" xmlns="http://www.w3.org/2000/svg">
<path d="M10.3458 60.1009C15.3469 57.4205 20.6481 56.5623 26.0223 55.943C30.9764 55.3725 35.9451 55.3091 40.9105 55.509C46.9012 55.7512 52.8497 56.4014 58.5597 58.4007C59.799 58.8346 60.9848 59.4263 62.3377 60.0066C62.0587 59.2784 61.7991 58.6006 61.5412 57.9228C61.3774 57.4937 61.2005 57.0613 61.0789 56.6322C60.928 56.0958 61.0237 55.8991 61.2492 55.7593C61.6856 55.4879 62.0927 55.7512 62.2533 56.1673C62.6864 57.3019 63.1179 58.4364 63.5527 59.571C63.9404 60.5787 64.3248 61.5865 64.7239 62.5894C65.1343 63.6199 65.0613 64.6358 64.2113 65.338C63.2883 66.102 62.2663 66.8107 61.1778 67.2967C57.9984 68.7157 54.5935 69.3675 51.174 69.8892C42.9869 71.1408 34.7626 71.3131 26.5252 70.515C21.5484 70.0323 16.5943 69.3382 11.9095 67.4592C10.8227 67.0236 9.77314 66.4059 8.83877 65.6972C7.64162 64.7886 7.53131 63.8004 8.05365 62.3846C10.276 56.3607 15.0241 42.0894 15.2755 41.0134C15.5772 40.2348 15.5269 39.8983 16.2602 40.0235C17.0842 40.1649 16.8052 40.8736 16.669 41.3417C15.767 44.4463 14.904 47.5671 13.8675 50.6278C12.8569 53.617 11.6548 56.5412 10.5372 59.4946C10.482 59.6392 10.4431 59.7888 10.3474 60.1009H10.3458ZM30.0713 56.9491C29.9691 56.9443 29.836 56.9166 29.7079 56.9329C26.3662 57.3636 23.0067 57.6903 19.6894 58.2657C16.7955 58.768 13.9518 59.5742 11.3985 61.1086C10.6945 61.5312 10.0278 62.0855 9.49251 62.7081C8.78687 63.5273 8.84689 64.1482 9.72123 64.7756C10.5891 65.3982 11.5413 65.9557 12.5357 66.3393C17.6828 68.3288 23.1041 68.9741 28.5513 69.4081C35.3335 69.9494 42.1077 69.795 48.8608 68.9335C52.6712 68.4475 56.459 67.8168 60.0472 66.3864C61.134 65.9541 62.143 65.2925 63.1228 64.6375C63.7895 64.1921 63.8722 63.4476 63.3094 62.8804C62.5794 62.1424 61.7975 61.3996 60.9053 60.8892C58.6392 59.5954 56.128 58.9305 53.5959 58.3698C49.2063 57.3994 44.7502 56.9686 40.2682 56.8126C37.7311 56.7248 35.1876 56.7671 32.6489 56.8126C32.2579 56.8191 31.7129 57.0564 31.5117 57.3653C30.1962 59.3727 30.1086 61.4939 31.3365 63.5598C32.5629 65.6225 34.4592 66.6205 36.8535 66.3962C40.4645 66.0597 42.703 62.9405 42.0444 59.306C41.9617 58.8525 41.8044 58.3324 42.4548 58.1861C43.0356 58.0561 43.1799 58.5209 43.2886 58.9549C43.9651 61.6743 42.8588 64.6472 40.5456 66.3425C38.1869 68.0687 35.0497 68.1744 32.5434 66.6107C30.1345 65.1088 28.8206 62.2123 29.3461 59.4279C29.5035 58.5925 29.8231 57.7862 30.0761 56.9459L30.0713 56.9491ZM57.455 41.8098C55.57 41.2864 53.6591 41.3157 51.7482 41.6018C46.8882 42.3267 42.4613 44.2073 38.3167 46.7772C36.9654 47.6143 35.7002 48.5928 34.43 49.5518C33.6562 50.1353 33.554 50.896 34.0666 51.5104C34.5517 52.0923 35.2897 52.1183 36.0132 51.5738C36.1852 51.4438 36.3474 51.2991 36.5177 51.1675C40.8262 47.8223 45.5986 45.4443 50.9598 44.3455C53.0054 43.9261 55.0834 43.7148 57.1289 44.3975C58.8646 44.9762 59.8022 46.2538 59.8947 48.0905C59.9823 49.82 59.2361 51.0732 57.6918 51.7949C55.9788 52.5962 54.2009 52.3735 52.9437 51.2211C52.7507 51.0439 52.522 50.8586 52.2787 50.7887C51.7077 50.6213 51.1951 50.7774 50.856 51.2877C50.4748 51.8632 50.5754 52.4256 51.0215 52.9197C52.4198 54.4736 54.2188 54.9385 56.2286 54.8149C59.7747 54.5988 62.4967 51.8095 62.4853 48.4075C62.4739 45.0672 60.6717 42.7038 57.455 41.8115V41.8098ZM19.7024 37.4959C24.0173 36.6491 27.8959 34.6823 31.7421 32.6407C34.6701 31.0868 37.6338 29.5996 40.591 28.1009C41.3469 27.7173 41.694 27.0931 41.4377 26.417C41.162 25.6888 40.4693 25.375 39.6307 25.7229C38.2616 26.2918 36.8941 26.8753 35.5817 27.5629C32.8095 29.016 30.1134 30.6155 27.3168 32.0198C22.8267 34.2759 18.1257 35.7908 13.0077 35.5194C9.04154 35.3097 5.31544 34.4239 2.25604 31.6639C1.63638 31.1047 0.870715 31.1275 0.372711 31.6557C-0.159358 32.2198 -0.144759 33.0097 0.565748 33.5672C1.60069 34.38 2.65996 35.1976 3.81656 35.812C6.71212 37.3464 9.84452 37.9283 13.0807 38.1689C13.7101 38.216 14.3411 38.1997 14.9689 38.1282C16.5522 37.9462 18.1419 37.8015 19.6992 37.4959H19.7024ZM55.5116 38.3509C55.5538 38.806 55.6836 39.2693 56.2546 39.201C56.8223 39.1327 56.8142 38.6581 56.7883 38.1997C56.6698 35.9973 56.5579 33.7948 56.4557 31.5907C56.4346 31.1307 56.2757 30.8008 55.7858 30.817C55.57 30.8251 55.2764 30.8576 55.1969 31.5826C55.1012 32.4636 55.3851 36.9839 55.5116 38.3509ZM17.4849 30.149C17.4184 29.9051 17.0842 29.5735 16.875 29.5768C16.6625 29.58 16.2959 29.9311 16.2748 30.1571C16.2001 30.96 16.2001 31.7776 16.2715 32.5822C16.2764 32.6326 16.2959 32.6798 16.3251 32.7269C16.5538 33.0861 17.0777 33.0991 17.36 32.7789C17.42 32.7123 17.4654 32.6407 17.4881 32.5627C17.5871 32.2328 17.5871 31.8752 17.5644 31.5013C17.5595 31.4087 17.5563 31.3144 17.5579 31.2217C17.5628 30.9698 17.5611 30.4302 17.4833 30.1473L17.4849 30.149ZM38.5714 8.5534C36.6978 8.55015 36.2858 8.54528 34.5728 8.55991C32.0227 8.58104 29.596 9.1727 27.2779 10.2179C25.2632 11.1265 23.4528 12.3472 21.9069 13.9255C21.8664 13.9677 21.8372 14.0197 21.8177 14.0815C21.6782 14.5041 22.0529 14.9137 22.4958 14.8698C22.8218 14.8373 23.0246 14.5854 23.1641 14.4586C24.9988 12.7682 27.1092 11.5475 29.4597 10.7201C32.305 9.71722 35.2541 9.73185 38.1999 9.84725C43.9748 10.0748 48.5509 12.5894 51.9656 17.2414C52.11 17.4364 52.1392 17.5551 52.4165 17.8005C52.6777 18.0313 53.02 17.9793 53.2049 17.8428C53.5504 17.5876 53.4693 17.1422 53.0735 16.5944C50.5592 13.0169 47.2029 10.5901 43.0194 9.33361C42.4159 9.15319 42.1775 8.70294 42.0801 8.04302C41.8757 6.63864 41.6632 5.42606 41.136 4.12084C40.3022 2.05328 38.6217 0.998376 36.3604 1C34.0731 1.00163 32.4347 2.07767 31.5085 4.1566C31.1711 4.91405 31.0008 5.74465 30.7655 6.54599C30.6341 6.99299 30.7169 7.39447 31.2197 7.50175C31.734 7.61065 31.8962 7.24168 32.0179 6.80444C32.2336 6.02748 32.4283 5.22939 32.7689 4.50607C33.4892 2.97491 34.7804 2.23046 36.5015 2.28247C38.0864 2.33123 39.2786 2.77985 39.9178 4.23462C40.3947 5.31879 40.7629 6.5655 40.4628 7.4026C40.1254 8.34535 39.1716 8.55178 38.5698 8.55178L38.5714 8.5534ZM21.9994 22.0071C22.452 19.0619 21.1494 16.0743 18.8199 14.7187C15.5383 12.8072 11.3288 14.3627 10.4755 17.8005C10.2874 18.558 10.6037 19.2244 11.2558 19.4503C11.9647 19.6974 12.7433 19.3837 12.9104 18.5856C13.3922 16.271 16.5781 15.7118 18.2619 17.5388C19.6375 19.031 19.7721 20.8466 19.193 22.7028C18.6577 24.4177 17.3081 25.1946 15.621 25.4661C13.8951 25.7424 12.2307 25.4254 10.6021 24.8793C7.50698 23.8423 4.8515 22.051 2.33391 20.0241C1.58609 19.4227 0.815561 19.4422 0.322424 20.0339C-0.185313 20.6434 -0.102582 21.4366 0.697144 21.9876C2.78324 23.4229 4.85474 24.9004 7.05277 26.1504C9.2508 27.4003 11.6792 28.0846 14.2471 28.135C18.5442 28.1984 21.3959 25.9439 22.001 22.0088L21.9994 22.0071ZM54.2609 27.9254C55.583 29.0957 57.1662 29.6646 58.8971 29.8352C61.6629 30.1083 64.1659 29.4013 66.5148 27.9172C67.9666 27.0021 69.5076 26.2073 71.0714 25.4986C72.0577 25.0516 72.1956 24.9914 71.7787 23.9967C69.8386 19.3707 64.1723 16.0922 59.2166 16.744C56.7866 17.0626 54.6859 18.0573 53.5748 20.3167C52.921 21.4106 52.4279 21.6999 51.0004 22.1112C49.3669 22.6069 47.7918 23.0117 46.2247 23.5773C45.485 23.8455 45.266 24.6062 45.5613 25.2515C45.8614 25.9066 46.5151 26.165 47.2613 25.9066C47.49 25.8269 50.8479 24.72 52.4668 24.2242C52.6242 25.8692 53.2309 27.0151 54.2609 27.9254Z" fill="#EBEDF0"/>
</svg>
