<svg width="72" height="73" viewBox="0 0 72 73" fill="none" xmlns="http://www.w3.org/2000/svg">
<path d="M12.5744 18.2521C8.64902 15.9917 4.72805 13.7239 0.801223 11.465C0.243801 11.1439 -0.129277 10.7184 0.0419002 10.041C0.182353 9.48727 0.584691 9.19128 1.27964 9.15005C1.45082 9.22368 1.7288 9.31056 1.97605 9.4534C5.90434 11.7094 9.8297 13.9698 13.7521 16.2376C14.4983 16.6691 14.7368 17.3288 14.4061 17.9385C14.0579 18.5805 13.3659 18.7101 12.5744 18.2536V18.2521ZM17.8721 14.3085C18.2378 14.7591 18.8991 14.8254 19.3468 14.4573L19.4595 14.3645C19.9072 13.9963 19.973 13.3307 19.6073 12.8801L14.7382 6.88668C14.3725 6.43607 13.7112 6.3698 13.2635 6.73795L13.1508 6.83072C12.7031 7.19887 12.6373 7.86448 13.0031 8.31509L17.8721 14.3085ZM10.254 22.097C7.6995 22.0912 5.14502 22.0912 2.59053 22.097C1.71417 22.0985 1.19039 22.5285 1.17284 23.2295C1.15382 23.9554 1.70392 24.4267 2.60224 24.4326C3.86777 24.4399 5.13185 24.434 6.39739 24.434C7.68633 24.434 8.97674 24.4399 10.2657 24.4326C11.1318 24.4267 11.6614 23.9908 11.6834 23.2913C11.7053 22.5624 11.164 22.0985 10.254 22.097ZM58.4644 18.6055C58.4278 19.3786 58.4044 20.2607 58.34 21.1399C58.2157 22.8304 59.032 23.6064 60.7087 23.3797C61.4329 23.2825 62.1586 23.1779 62.8857 23.1323C65.6582 22.9556 68.3838 23.1632 71.0173 24.1513C71.2426 24.2352 71.5411 24.2971 71.7796 24.0526C71.9508 23.8774 71.9815 23.6109 71.7781 23.2C71.7489 23.1411 71.7094 23.0734 71.6728 23.01C68.3224 17.2684 63.9084 12.4913 58.6107 8.52272C58.3795 8.34896 57.9245 8.08537 57.5631 8.39608C57.3861 8.54776 57.4227 8.77896 57.5046 9.17214C57.5339 9.30909 57.547 9.46076 57.5763 9.6036C58.163 12.5399 58.4761 15.5028 58.4644 18.607V18.6055ZM30.4207 11.2529C30.861 11.2529 30.9971 10.9481 31.0132 10.5225C31.0571 9.36946 31.1039 9.33412 32.2348 9.33265C39.4272 9.33265 46.6195 9.33265 53.8104 9.33265C54.0547 9.33265 54.3283 9.39744 54.5332 9.30614C54.5361 9.30614 54.5375 9.30467 54.5405 9.3032C54.9501 9.11471 54.9984 8.52125 54.6312 8.25913C54.6063 8.24146 54.58 8.22526 54.5536 8.21054C54.3825 8.11629 54.125 8.17667 53.9055 8.17667C50.2728 8.17667 46.64 8.17667 43.0073 8.17667C39.3496 8.17667 35.6935 8.17225 32.0359 8.17814C30.4353 8.18108 29.752 8.89087 29.8705 10.4989C29.891 10.7758 29.9803 11.2529 30.4192 11.2529H30.4207ZM27.1244 34.8879C26.3563 34.9086 25.7506 35.527 25.7433 36.2957C25.736 37.0954 26.3695 37.7403 27.1624 37.7389C27.9642 37.7389 28.586 37.1042 28.5772 36.2928C28.5684 35.4917 27.9203 34.8644 27.1229 34.8865L27.1244 34.8879ZM71.9815 27.4838C71.9815 27.2879 72.0371 27.0523 71.9508 26.9065C71.8293 26.7033 71.6011 26.5472 71.4138 26.5443C71.2251 26.5428 70.972 26.6886 70.8593 26.8918C70.7642 27.0626 70.8242 27.3218 70.8242 27.5427C70.8242 32.2211 70.8184 36.901 70.8242 41.5794C70.8301 46.2917 70.4804 50.9745 69.645 55.6132C69.0876 58.7026 68.3209 61.7303 66.8667 64.5459C66.5726 65.1158 66.2156 65.3455 65.5572 65.344C53.0496 65.3249 40.542 65.3308 28.0344 65.3293C26.9883 65.3293 26.7996 65.048 27.1932 64.0982C29.6525 58.1563 30.3519 51.8625 30.8596 45.5318C30.8932 45.1195 30.8654 44.8058 30.406 44.7882C29.9247 44.7705 29.7579 45.2358 29.7242 45.5112C29.4858 47.5036 29.3614 49.5107 29.1039 51.5002C28.5655 55.6573 27.7857 59.7629 26.1295 63.6476C25.3965 65.3661 26.1398 66.4912 28.0052 66.4926C34.2714 66.4941 40.5376 66.4926 46.8024 66.4926C53.1169 66.4926 59.4314 66.4853 65.746 66.5C66.6765 66.5015 67.3626 66.1701 67.7416 65.3116C68.2931 64.0614 68.9222 62.8318 69.3348 61.5344C71.307 55.3392 71.8718 48.932 71.9639 42.4747C72.0356 37.4782 71.9786 32.4803 71.9771 27.4823L71.9815 27.4838ZM31.2136 26.8535C31.8647 25.8183 32.1968 24.6829 32.2553 23.4577C32.3972 20.5346 30.4455 18.4038 27.6087 18.3964C24.6943 18.3891 22.4968 20.7246 22.6533 23.6609C22.6884 24.331 23.1098 24.8022 23.7155 24.8478C24.3051 24.8935 24.8216 24.4694 24.9357 23.8185C24.9869 23.5313 24.9723 23.2324 25.0132 22.9423C25.2195 21.4948 26.4558 20.5773 27.9627 20.7423C29.2385 20.8822 29.9934 21.9086 29.9232 23.3738C29.8735 24.412 29.5033 25.325 28.9049 26.1555C28.4616 26.7696 28.0008 27.3704 27.5706 27.9933C26.7513 29.1817 26.2158 30.482 26.1485 31.9398C26.1354 32.2417 26.1807 32.6364 26.3402 32.8293C26.6162 33.166 26.9869 33.3344 27.4521 33.3344C28.0081 33.3344 28.3724 32.897 28.4133 32.3124C28.5216 30.775 29.2473 29.5277 30.1705 28.357C30.5479 27.8784 30.8888 27.3689 31.2136 26.852V26.8535ZM34.0519 40.8225C34.3402 40.6826 34.7615 40.6605 35.0731 40.7503C36.6635 41.2142 38.2406 41.7207 39.8149 42.2362C40.4645 42.4497 41.0482 42.4674 41.5735 41.949C42.1163 41.413 42.1338 40.8092 41.9114 40.1245C41.4038 38.5665 40.9005 37.007 40.4542 35.4328C40.3548 35.0809 40.3869 34.6067 40.542 34.2783C41.534 32.1872 42.0577 29.9975 42.0592 27.3763C42.0373 27.0464 42.0329 26.4044 41.9436 25.777C40.9268 18.6453 35.335 13.4677 28.1763 13.0288C26.406 12.9199 24.6782 13.179 22.9854 13.7092C22.5977 13.8314 22.2715 14.0096 22.3914 14.4705C22.5275 14.9918 22.9372 14.9358 23.341 14.8121C23.4814 14.7694 23.6219 14.7297 23.7623 14.6885C25.6906 14.1348 27.6511 13.9934 29.6248 14.3468C38.8127 15.9902 43.6144 25.78 39.3452 34.0927C39.1594 34.4535 39.1243 34.994 39.2355 35.3901C39.7125 37.0836 40.2801 38.752 40.7893 40.4367C40.8507 40.6413 40.8317 40.9344 40.722 41.1037C40.662 41.1965 40.3211 41.1641 40.1324 41.1052C38.5025 40.6045 36.8712 40.1053 35.256 39.5619C34.6854 39.369 34.2217 39.4014 33.6715 39.6886C30.6767 41.2481 27.5092 41.653 24.2334 40.8357C14.2218 38.3367 10.6007 26.0303 17.6234 18.4362C17.7711 18.2772 17.9555 18.1093 18.0067 17.9149C18.0535 17.7352 18.0038 17.4481 17.8809 17.3303C17.758 17.2125 17.4697 17.1742 17.2927 17.2287C17.1025 17.2876 16.9401 17.479 16.7953 17.6395C13.4464 21.3298 12.1472 25.6681 13.1259 30.5423C15.063 40.1834 25.2137 45.1165 34.0549 40.8254L34.0519 40.8225Z" fill="#F5F8FD"/>
</svg>
