<svg width="72" height="72" viewBox="0 0 72 72" fill="none" xmlns="http://www.w3.org/2000/svg">
<path d="M66.7122 40.4027C64.0814 40.436 61.4507 40.4138 58.8199 40.4138C58.4358 40.4138 57.9981 40.3932 57.9772 40.9344C57.9564 41.4645 58.3643 41.5263 58.7663 41.5248C61.4462 41.52 64.1276 41.5565 66.806 41.5041C68.5762 41.4692 70.0219 40.6392 71.0224 39.0711C72.1762 37.2634 72.3176 35.3113 71.399 33.3671C70.4819 31.4245 68.941 30.3136 66.8775 30.2834C62.9574 30.2263 59.0358 30.2628 55.1142 30.258C53.4631 30.2564 52.8542 29.4978 53.1564 27.7679C54.014 22.8685 54.8909 17.9707 55.7544 13.073C56.0834 11.2082 56.4631 9.36395 56.1281 7.42929C55.4864 3.72343 52.3494 0.47942 48.8611 0.0286863C47.277 -0.176048 46.0949 0.727007 45.8611 2.35695C45.3936 5.61683 44.9142 8.87513 44.4944 12.1414C43.7351 18.058 40.8631 22.2019 35.5286 24.2398C31.543 25.7618 28.9525 28.617 27.8135 32.9624C27.5143 34.1067 26.9411 34.5701 25.8155 34.5765C23.682 34.586 21.547 34.5812 19.4135 34.5765C19.2483 34.5765 19.083 34.5384 18.8582 34.5098C18.8582 33.6052 18.8582 32.7386 18.8582 31.8721C18.8582 30.7627 18.8924 29.6517 18.8314 28.5471C18.8165 28.2773 18.486 28.0266 18.3014 27.7679C18.1406 28.0186 17.8934 28.2487 17.8369 28.5249C17.7565 28.9153 17.816 29.3375 17.816 29.793H16.8006C11.8131 29.793 6.82398 29.7914 1.8364 29.793C0.372876 29.793 -0.143748 30.4786 0.0334232 32.0387C0.667665 37.6443 1.28106 43.2547 1.90191 48.8619C2.58379 55.0198 3.25823 61.1793 3.95054 67.3356C4.11729 68.8227 4.52225 69.1766 5.93515 69.1782C9.58278 69.1814 13.2319 69.1782 16.8795 69.1782C17.1699 69.1782 17.4587 69.1782 17.8175 69.1782C17.8175 69.6797 17.755 70.0876 17.8383 70.4574C17.8994 70.7256 18.1555 70.9431 18.3252 71.1827C18.5024 70.9431 18.8165 70.7114 18.8314 70.4606C18.891 69.4607 18.8582 68.4561 18.8582 67.4515C18.8582 66.6452 18.8582 65.839 18.8582 65.0883C21.014 64.7106 22.878 65.0264 24.3907 66.677C24.5277 66.8262 24.7004 66.9404 24.8582 67.069C28.4775 70.0432 32.5659 71.8445 37.1351 71.9191C45.2983 72.0556 53.4631 71.9826 61.6278 71.962C63.8313 71.9572 65.7206 70.4669 66.4755 68.2974C67.2333 66.1183 66.6765 63.7599 65.0268 62.1569C64.8556 61.9903 64.6829 61.8268 64.467 61.6189C66.5142 60.7889 67.8199 59.3732 68.2308 57.164C68.6492 54.9182 67.8899 53.0867 66.2507 51.5917C66.5708 51.479 66.809 51.4044 67.0397 51.3108C69.7286 50.2284 71.1549 46.9875 70.1812 44.1847C70.0442 43.7927 69.8715 43.3531 69.4174 43.6102C69.2417 43.7086 69.142 44.2403 69.2149 44.5101C70.0799 47.7335 68.1281 50.5442 64.9762 50.5585C63.0899 50.5664 61.2035 50.5617 59.3187 50.5585C58.9211 50.5585 58.4804 50.6109 58.5519 51.1362C58.5802 51.3473 59.0328 51.6329 59.3008 51.6441C60.5648 51.698 61.8333 51.6266 63.0958 51.6869C63.7018 51.7155 64.3405 51.8377 64.8943 52.09C66.6407 52.8836 67.6025 54.9341 67.2363 56.91C66.8462 59.0161 65.1579 60.6302 63.1911 60.6952C61.6531 60.746 60.1137 60.7111 58.5757 60.7127C58.1871 60.7127 57.7613 60.727 57.7628 61.2745C57.7628 61.8284 58.1946 61.8221 58.5802 61.8221C59.5971 61.8221 60.6169 61.7935 61.6323 61.8332C64.3703 61.9427 66.267 64.6153 65.6343 67.442C65.1817 69.4655 63.5053 70.859 61.4194 70.8621C53.5524 70.8732 45.6854 70.8669 37.8185 70.8574C35.7922 70.8558 33.8254 70.4574 31.8974 69.8099C29.1594 68.8894 26.7386 67.3626 24.5604 65.4025C23.3187 64.2852 21.9475 63.725 20.3202 63.8694C19.8587 63.9107 19.3927 63.8758 18.8999 63.8758V35.6859C21.2269 35.6859 23.4587 35.6906 25.6904 35.6843C27.4532 35.6779 28.3063 34.8796 28.8855 33.1068C29.3113 31.8022 29.8592 30.5008 30.5753 29.355C31.8691 27.2886 33.7942 26.0697 35.9768 25.2269C41.0775 23.2589 44.2428 19.4277 45.2567 13.7475C45.9088 10.0956 46.342 6.40086 46.8676 2.72357C47.0522 1.43009 47.6701 0.942851 48.8834 1.15393C52.9435 1.8586 55.8452 6.11994 55.1187 10.4495C54.1658 16.1345 53.14 21.8067 52.1351 27.4822C51.6959 29.958 52.7678 31.3642 55.1306 31.3642C58.9033 31.3642 62.6745 31.3737 66.4472 31.3594C67.4477 31.3563 68.3633 31.5943 69.1747 32.2244C70.6561 33.3766 71.2725 35.3732 70.7246 37.2222C70.1663 39.1045 68.606 40.3757 66.7048 40.3995L66.7122 40.4027ZM10.5461 65.6184C8.9009 65.6136 7.56988 64.1884 7.57435 62.4347C7.57733 60.6825 8.91281 59.2732 10.5669 59.278C12.221 59.2827 13.5401 60.6952 13.5341 62.4569C13.5282 64.2154 12.1987 65.6231 10.5475 65.6184H10.5461ZM59.8144 13.665C59.8398 13.3634 59.7579 12.9587 59.9097 12.7762C60.6958 11.8335 61.5296 10.9368 62.3767 10.0543C62.5241 9.90198 62.813 9.82897 63.0259 9.84802C63.1598 9.85913 63.276 10.1099 63.4189 10.2765C63.2819 10.5098 63.203 10.7066 63.0735 10.8526C62.2725 11.7462 61.479 12.6476 60.6363 13.4952C60.4651 13.6666 60.0943 13.6142 59.8159 13.665H59.8144ZM34.4075 16.1916C34.0726 14.8442 33.7748 13.484 33.5142 12.1191C33.483 11.9573 33.7242 11.6097 33.8879 11.5684C34.0547 11.5272 34.418 11.7192 34.4582 11.8795C34.8021 13.2253 35.0909 14.5855 35.4304 16.0885C35.3053 16.2218 35.1535 16.5122 34.9525 16.5582C34.7961 16.5947 34.4492 16.3646 34.4061 16.1916H34.4075ZM63.4606 25.1015C63.5276 24.8857 64.0293 24.6905 64.3226 24.7079C65.3812 24.773 66.4338 24.9381 67.4894 25.0571C67.8779 25.1015 68.3246 25.1761 68.2204 25.6919C68.1698 25.9459 67.7514 26.1157 67.6546 26.1966C66.3028 26.0316 65.2234 25.9046 64.144 25.7665C63.7658 25.7173 63.2998 25.6253 63.4621 25.1015H63.4606ZM21.6423 21.9448C21.7733 21.7687 22.1277 21.5941 22.2929 21.6655C23.481 22.1876 24.6483 22.7622 25.811 23.3478C25.9614 23.424 26.0433 23.6525 26.283 23.9842C25.9153 24.1334 25.6041 24.3921 25.4225 24.3128C24.2105 23.7843 23.0195 23.1986 21.8433 22.5844C21.6989 22.5098 21.5649 22.0464 21.6408 21.9448H21.6423Z" fill="#EBEDF0"/>
</svg>
