<svg width="48" height="48" viewBox="0 0 48 48" fill="none" xmlns="http://www.w3.org/2000/svg">
<g id="location_pin">
<path id="Vector" d="M11.9689 28.205C10.0589 25.1191 9 21.6789 9 18C9 9.70772 15.7077 3 24 3C32.2923 3 39 9.70772 39 18C39 21.6781 37.9415 25.119 36.0102 28.2064C35.0287 29.8073 33.8974 31.2815 32.7995 32.7056L32.7209 32.8074C31.6398 34.2096 30.5949 35.5646 29.6874 37.011L11.9689 28.205ZM11.9689 28.205C12.9506 29.7964 14.0827 31.2666 15.1805 32.6906L15.2018 32.7181C16.3024 34.1457 17.3682 35.528 18.2914 37.009L18.2926 37.011C19.1968 38.4538 19.8548 39.8056 20.5662 41.4061L20.5759 41.4274C20.6564 41.5977 20.7304 41.7809 20.8194 42.0015C20.8582 42.0978 20.9 42.2013 20.9464 42.3139C21.0875 42.6562 21.2611 43.0539 21.485 43.427C21.9368 44.1799 22.7049 45 24 45C25.2952 45 26.0638 44.1799 26.514 43.4244C26.7371 43.05 26.9089 42.6514 27.0479 42.3072C27.0994 42.1796 27.1447 42.0642 27.1866 41.9577C27.2674 41.7518 27.3353 41.579 27.4101 41.4144C28.1482 39.7985 28.7851 38.4509 29.6871 37.0115L11.9689 28.205ZM24 22.5C21.7923 22.5 20 20.7077 20 18.5C20 16.2923 21.7923 14.5 24 14.5C26.2077 14.5 28 16.2923 28 18.5C28 20.7077 26.2077 22.5 24 22.5Z" fill="#ED3F64" stroke="white" stroke-width="2" stroke-linejoin="round"/>
</g>
</svg>
