<svg width="240" height="240" viewBox="0 0 240 240" fill="none" xmlns="http://www.w3.org/2000/svg">
<circle cx="120" cy="120" r="80" fill="white"/>
<g clip-path="url(#clip0_12965_75383)">
<path d="M150.261 134.596C149.746 133.339 150.347 131.903 151.604 131.388C152.86 130.873 154.296 131.474 154.812 132.73L160.719 147.14C161.234 148.397 160.633 149.833 159.376 150.348C158.119 150.863 156.683 150.262 156.168 149.006L150.261 134.596Z" fill="#67E5AD"/>
<path d="M90.3197 110.068C89.7209 108.608 88.0419 107.896 86.654 108.648C84.5357 109.796 82.5823 111.228 80.8535 112.904C78.4423 115.243 76.5155 118.011 75.1829 121.052C73.8503 124.093 73.1381 127.346 73.087 130.626C73.0358 133.907 73.6467 137.149 74.8848 140.17C76.1229 143.19 77.9639 145.929 80.3027 148.229C82.6415 150.53 85.4324 152.347 88.5159 153.577C91.5993 154.808 94.9151 155.427 98.2738 155.401C100.682 155.381 103.079 155.03 105.393 154.361C106.91 153.923 107.606 152.237 107.007 150.776C106.408 149.316 104.741 148.638 103.211 149.028C101.627 149.431 99.9986 149.643 98.3634 149.656C95.7772 149.676 93.2241 149.199 90.8498 148.252C88.4755 147.304 86.3265 145.905 84.5256 144.134C82.7248 142.362 81.3072 140.253 80.3539 137.928C79.4005 135.602 78.9301 133.105 78.9695 130.58C79.0089 128.054 79.5573 125.549 80.5834 123.207C81.6095 120.866 83.0932 118.734 84.9497 116.933C86.1236 115.795 87.432 114.803 88.8432 113.978C90.2062 113.182 90.9184 111.529 90.3197 110.068Z" fill="#159BFF"/>
<path d="M134.39 90.3468C135.886 89.5036 136.43 87.5942 135.42 86.2047C133.816 83.9965 131.884 82.0389 129.684 80.4024C126.651 78.1457 123.179 76.5501 119.491 75.7184C115.804 74.8867 111.983 74.8376 108.275 75.5741C104.567 76.3107 101.054 77.8165 97.9646 79.9944C94.8747 82.1724 92.2758 84.9741 90.3357 88.2186C88.3956 91.4631 87.1574 95.0784 86.701 98.8311C86.2446 102.584 86.5801 106.39 87.686 110.005C88.4879 112.627 89.6819 115.105 91.2225 117.358C92.1918 118.776 94.1727 118.906 95.4697 117.78C96.7667 116.655 96.8828 114.701 95.9627 113.25C94.9651 111.678 94.1805 109.976 93.6331 108.186C92.7816 105.403 92.5232 102.471 92.8746 99.5819C93.226 96.6923 94.1795 93.9086 95.6733 91.4103C97.1672 88.912 99.1684 86.7547 101.548 85.0777C103.927 83.4007 106.631 82.2412 109.486 81.6741C112.341 81.1069 115.284 81.1448 118.123 81.7851C120.963 82.4255 123.636 83.6542 125.972 85.3919C127.473 86.5089 128.813 87.8203 129.958 89.2883C131.015 90.6423 132.894 91.1899 134.39 90.3468Z" fill="#F85977"/>
<path d="M151.659 135.099C152.31 136.688 154.138 137.464 155.641 136.634C158.609 134.998 161.25 132.813 163.421 130.187C166.255 126.761 168.199 122.688 169.083 118.33C169.966 113.972 169.761 109.463 168.486 105.203C167.211 100.943 164.905 97.0634 161.772 93.9076C158.639 90.7518 154.777 88.4173 150.526 87.1109C146.276 85.8045 141.769 85.5665 137.404 86.4181C133.04 87.2696 128.953 89.1843 125.505 91.9926C122.864 94.1444 120.66 96.7698 119.002 99.7249C118.161 101.223 118.923 103.056 120.508 103.719C122.092 104.382 123.894 103.619 124.786 102.151C126.015 100.126 127.585 98.3199 129.433 96.8145C132.088 94.6521 135.235 93.1777 138.595 92.5221C141.956 91.8664 145.426 92.0496 148.699 93.0556C151.972 94.0615 154.946 95.859 157.358 98.289C159.771 100.719 161.546 103.706 162.528 106.986C163.51 110.267 163.668 113.738 162.988 117.094C162.307 120.45 160.81 123.586 158.628 126.225C157.109 128.062 155.291 129.618 153.258 130.832C151.784 131.713 151.007 133.51 151.659 135.099Z" fill="#7A67F8"/>
<path d="M160.464 149.024C161.315 147.047 159.943 144.834 157.792 144.906C151.748 145.11 145.448 146.434 139.405 148.79C133.301 151.17 127.679 154.519 122.992 158.541C121.396 159.912 121.841 162.414 123.744 163.311C124.924 163.868 126.319 163.606 127.282 162.726C131.21 159.136 136.055 156.157 141.355 154.09C146.644 152.028 152.179 150.954 157.422 150.961C158.731 150.962 159.947 150.226 160.464 149.024Z" fill="#67E5AD"/>
<path d="M154.711 134.991C155.562 133.014 154.189 130.8 152.038 130.873C146.68 131.054 141.113 132.115 135.695 134.003C130.088 135.957 124.807 138.738 120.207 142.143C118.6 143.333 118.778 145.729 120.469 146.795C121.579 147.495 123.01 147.378 124.046 146.573C127.909 143.571 132.423 141.131 137.236 139.454C142.031 137.783 146.971 136.922 151.669 136.927C152.978 136.929 154.193 136.193 154.711 134.991Z" fill="#67E5AD"/>
</g>
<defs>
<clipPath id="clip0_12965_75383">
<rect width="100" height="100" fill="white" transform="translate(70 70)"/>
</clipPath>
</defs>
</svg>
