<svg width="366" height="366" viewBox="0 0 366 366" fill="none" xmlns="http://www.w3.org/2000/svg">
<g clip-path="url(#clip0_12939_97605)">
<path d="M76.0802 146.14C73.8902 140.79 67.7402 138.19 62.6602 140.94C54.9102 145.14 47.7602 150.38 41.4302 156.52C32.6102 165.08 25.5502 175.21 20.6802 186.34C15.8102 197.47 13.2002 209.38 13.0102 221.39C12.8202 233.4 15.0602 245.26 19.5902 256.32C24.1202 267.37 30.8602 277.4 39.4202 285.82C47.9802 294.24 58.1902 300.89 69.4802 305.39C80.7702 309.89 92.9002 312.16 105.19 312.06C114 311.99 122.77 310.7 131.25 308.26C136.8 306.65 139.35 300.49 137.16 295.14C134.97 289.79 128.87 287.31 123.27 288.74C117.47 290.22 111.51 290.99 105.53 291.04C96.0602 291.11 86.7202 289.37 78.0302 285.9C69.3402 282.43 61.4802 277.31 54.8802 270.83C48.2902 264.35 43.1002 256.63 39.6102 248.12C36.1202 239.61 34.4002 230.47 34.5402 221.22C34.6802 211.98 36.6902 202.81 40.4502 194.24C44.2102 185.67 49.6402 177.87 56.4302 171.28C60.7302 167.11 65.5102 163.48 70.6802 160.46C75.6702 157.54 78.2802 151.5 76.0802 146.15V146.14Z" fill="#159BFF"/>
<path d="M237.38 73.96C242.86 70.87 244.84 63.89 241.15 58.8C235.28 50.72 228.21 43.55 220.16 37.56C209.06 29.3 196.35 23.46 182.85 20.42C169.35 17.38 155.37 17.2 141.8 19.89C128.23 22.59 115.37 28.1 104.07 36.07C92.7602 44.04 83.2502 54.3 76.1502 66.17C69.0502 78.05 64.5202 91.28 62.8502 105.01C61.1802 118.75 62.4102 132.68 66.4602 145.91C69.3902 155.5 73.7702 164.57 79.4002 172.82C82.9502 178.01 90.2002 178.49 94.9402 174.36C99.6902 170.24 100.11 163.09 96.7402 157.78C93.0902 152.03 90.2202 145.79 88.2102 139.24C85.0902 129.05 84.1502 118.32 85.4302 107.75C86.7202 97.17 90.2102 86.99 95.6702 77.84C101.14 68.7 108.46 60.8 117.17 54.66C125.88 48.52 135.78 44.28 146.23 42.2C156.68 40.12 167.45 40.26 177.84 42.61C188.23 44.95 198.02 49.45 206.57 55.81C212.06 59.9 216.97 64.7 221.16 70.07C225.03 75.03 231.9 77.03 237.38 73.94V73.96Z" fill="#F85977"/>
<path d="M300.58 237.76C302.96 243.58 309.65 246.41 315.16 243.38C326.02 237.39 335.69 229.4 343.63 219.78C354 207.24 361.12 192.33 364.35 176.38C367.58 160.43 366.83 143.93 362.17 128.34C357.5 112.75 349.06 98.55 337.6 87C326.13 75.45 312 66.91 296.44 62.12C280.88 57.34 264.39 56.47 248.41 59.58C232.44 62.7 217.48 69.7 204.86 79.98C195.19 87.86 187.13 97.46 181.06 108.28C177.98 113.76 180.77 120.47 186.57 122.9C192.37 125.33 198.97 122.54 202.23 117.16C206.73 109.75 212.47 103.14 219.24 97.63C228.96 89.72 240.47 84.32 252.77 81.92C265.07 79.52 277.77 80.19 289.75 83.87C301.73 87.55 312.61 94.13 321.44 103.02C330.27 111.91 336.77 122.85 340.36 134.85C343.95 146.85 344.53 159.56 342.04 171.84C339.55 184.12 334.07 195.6 326.08 205.26C320.52 211.98 313.87 217.68 306.43 222.12C301.03 225.34 298.19 231.92 300.58 237.74V237.76Z" fill="#7A67F8"/>
<path d="M333.74 281.83L312.12 229.09C311.87 228.47 311.54 227.89 311.18 227.37C309.37 224.29 306.06 222.16 301.97 222.3C282.36 222.96 261.98 226.85 242.15 233.76C221.63 240.91 202.3 251.09 185.46 263.55C179.58 267.9 180.23 276.67 186.42 280.57C190.48 283.13 195.72 282.7 199.51 279.76C213.65 268.78 230.17 259.84 247.79 253.71C264.78 247.79 282.26 244.66 298.97 244.48L311.25 274.45C292.8 276.25 273.95 280.78 255.73 287.88C233.39 296.59 212.81 308.85 195.66 323.57C189.82 328.59 191.44 337.74 198.41 341.03C202.73 343.07 207.84 342.11 211.36 338.89C225.73 325.75 243.47 314.85 262.87 307.28C282.23 299.73 302.49 295.8 321.68 295.83C324.31 295.83 326.83 295.02 328.88 293.56C333.44 291.66 335.62 286.42 333.74 281.84V281.83Z" fill="#67E5AD"/>
</g>
<defs>
<clipPath id="clip0_12939_97605">
<rect width="366" height="366" fill="white"/>
</clipPath>
</defs>
</svg>
