<svg width="1202" height="669" viewBox="0 0 1202 669" fill="none" xmlns="http://www.w3.org/2000/svg">
<path fill-rule="evenodd" clip-rule="evenodd" d="M350.331 564.362C350.431 572.762 350.531 580.062 350.231 610.862L350.131 619.162H316.831V545.562C316.831 519.962 296.431 499.162 271.231 499.162C245.631 499.162 224.931 519.962 224.931 545.562V619.162H192.331V545.562C192.331 501.962 227.731 466.562 271.231 466.562C314.731 466.562 350.131 501.962 350.131 545.562C350.131 554.962 350.231 559.762 350.331 564.362ZM126.231 471.862H158.831V545.462C158.831 589.062 123.431 624.462 79.9307 624.462C36.4307 624.462 1.03074 589.062 1.03074 545.462V544.462C0.630745 525.962 0.830745 499.262 1.03074 480.062L1.13074 471.762H34.4307V545.362C34.4307 570.962 54.8307 591.762 80.0307 591.762C105.631 591.762 126.331 570.962 126.331 545.362V471.862H126.231ZM462.831 591.862C437.231 591.862 416.531 571.062 416.531 545.462C416.531 519.862 437.331 499.062 462.831 499.062C488.331 499.062 509.131 519.862 509.131 545.462C509.131 571.062 488.331 591.862 462.831 591.862ZM462.831 466.562C419.331 466.562 383.931 501.962 383.931 545.562C383.931 589.162 419.331 624.562 462.831 624.562C506.331 624.562 541.731 589.162 541.731 545.562C541.731 501.962 506.331 466.562 462.831 466.562Z" fill="#242424"/>
<path d="M775.831 668.562C746.431 668.562 730.531 668.462 728.131 668.162C720.831 667.462 715.231 665.862 711.631 663.462C710.431 662.762 709.831 661.862 709.831 660.962C709.831 659.462 712.231 658.662 717.131 658.462C728.131 657.262 796.031 656.662 920.931 656.662C1108.23 656.662 1201.83 658.262 1201.83 661.362C1200.63 661.562 1199.43 661.962 1198.13 662.462C1198.13 662.662 1196.93 662.962 1194.43 663.162C1183.43 665.062 1105.73 666.562 961.231 667.562C876.831 668.162 815.031 668.562 775.831 668.562Z" fill="#242424"/>
<path d="M1012.33 553.362C1010.73 553.362 1008.93 554.762 1007.13 557.562C995.231 574.562 981.031 587.862 964.431 597.462C952.031 604.662 941.531 608.362 932.931 608.362C921.931 608.362 916.431 603.662 916.431 594.362C916.431 587.562 919.231 579.162 924.831 569.162L939.831 566.062C945.931 564.862 951.531 563.062 956.631 560.462C962.031 557.662 967.031 554.662 971.631 551.362C987.531 539.662 995.431 528.962 995.431 519.162C995.431 515.862 994.531 512.962 992.631 510.362C989.631 505.962 984.631 503.662 977.631 503.662C972.231 503.662 966.931 505.462 961.531 508.862C940.331 522.362 924.231 538.162 913.231 556.062C908.731 563.762 905.431 570.762 903.431 577.062C895.231 585.262 886.131 592.662 876.131 599.062C861.431 608.362 852.231 612.262 848.531 610.662C846.931 609.962 846.031 608.362 846.031 605.762C846.031 593.662 858.631 569.962 883.831 534.762C888.231 528.662 890.531 523.462 890.531 518.962C890.531 511.962 885.731 508.462 876.131 508.462C871.931 508.462 868.231 509.162 864.931 510.562C851.131 516.862 838.531 526.462 827.131 539.262C824.831 541.862 822.031 544.862 818.731 548.362C815.731 551.662 811.931 555.262 807.531 559.162C803.331 563.162 800.031 566.162 797.731 568.262C795.631 570.162 794.431 571.162 794.231 571.462C817.831 508.962 844.831 466.362 875.431 443.662C876.831 442.462 877.531 441.562 877.531 440.862C877.531 437.562 873.431 435.962 865.331 435.962C860.431 435.962 856.531 436.962 853.831 439.162C843.831 446.862 824.931 477.562 797.131 531.162C788.731 547.462 781.531 562.362 775.431 575.662C773.231 580.462 771.231 585.062 769.331 589.462C765.731 591.762 761.931 594.162 757.931 596.662C727.331 615.762 701.031 627.762 678.831 632.662C673.431 633.862 668.331 634.662 663.431 635.162C658.531 635.862 653.831 636.162 649.431 636.162C628.631 636.162 612.831 629.962 601.831 617.662C592.531 606.962 587.831 592.562 587.831 574.662C587.831 559.062 591.331 543.362 598.331 527.762C607.931 506.062 622.231 485.262 641.331 465.462C653.931 452.362 667.831 440.762 683.031 430.462C698.231 419.962 714.631 410.762 732.331 402.762C749.831 394.862 766.631 390.862 782.731 390.862C806.331 390.862 818.031 399.162 818.031 415.662C818.031 425.962 812.531 438.662 801.531 453.862C796.431 460.662 790.831 467.062 784.731 473.062C778.631 478.862 771.931 484.262 764.431 489.162C750.231 498.962 737.631 503.862 726.631 503.862C715.431 503.862 708.931 497.862 707.031 485.962C706.831 482.962 705.031 481.462 701.831 481.462C698.331 481.462 696.631 482.962 696.631 485.962V487.362C699.231 503.262 708.731 511.162 725.331 511.162C732.131 511.162 739.231 510.262 746.631 508.362C754.331 506.462 762.631 502.962 771.531 497.862C788.831 487.162 803.831 473.262 816.631 456.162C822.031 449.362 825.531 442.962 827.131 436.962C829.031 430.662 829.931 424.762 829.931 419.162C829.931 407.962 825.031 399.062 815.231 392.562C805.431 385.762 792.631 382.362 776.731 382.362C760.631 382.362 743.831 385.862 726.331 392.862C689.731 407.362 659.031 426.062 634.331 449.162C609.831 472.262 591.031 498.062 578.031 526.562C570.831 542.462 567.131 558.262 567.131 574.162C567.131 595.662 573.431 613.362 586.031 627.362C599.831 642.562 618.331 650.162 641.631 650.162C656.531 650.162 672.931 646.962 690.631 640.662C703.431 635.962 716.431 630.262 729.531 623.462C740.831 617.762 752.131 610.862 763.631 602.962C762.431 605.962 761.331 608.762 760.331 611.562C759.431 614.362 764.031 615.762 774.331 615.762C776.431 615.762 777.731 615.562 778.131 615.062C786.031 601.962 794.431 589.662 803.331 577.962C812.431 566.062 822.131 554.962 832.331 544.762C849.631 526.762 861.231 517.762 867.331 517.762C869.631 517.762 870.831 518.762 870.831 520.862C870.831 524.362 863.231 537.562 848.031 560.462C834.231 580.962 827.431 594.862 827.431 602.062C827.431 606.062 829.731 609.662 834.431 612.862C839.131 615.862 844.031 617.162 849.131 616.762C854.931 617.662 866.031 612.762 882.331 602.062C889.131 597.462 895.331 592.562 901.031 587.462C900.931 588.662 900.831 589.762 900.831 590.862C900.831 599.762 904.231 606.462 910.931 611.162C916.031 614.462 922.031 616.062 928.831 616.062C929.731 616.062 930.631 616.062 931.231 616.062C932.131 616.062 933.131 615.962 934.031 615.762C962.531 612.462 988.031 593.862 1010.73 559.762C1012.33 557.462 1013.13 555.662 1013.13 554.562C1013.43 553.762 1013.03 553.362 1012.33 553.362ZM946.231 541.762C952.731 534.962 959.431 528.662 966.231 522.862C975.531 515.362 981.731 511.662 984.731 511.662C986.331 511.662 987.231 512.662 987.231 514.762C987.231 516.862 986.431 519.562 984.731 522.762C978.931 535.562 968.731 546.062 954.231 554.262C943.931 560.062 935.531 563.062 929.031 563.062C928.131 563.062 927.731 562.962 927.931 562.762C933.831 555.262 939.931 548.262 946.231 541.762Z" fill="#242424"/>
<path d="M1019.73 630.662C1009.73 630.662 1004.73 624.462 1004.73 612.162C1004.73 601.862 1007.93 588.062 1014.23 570.562C1015.43 566.862 1018.03 560.062 1022.23 550.262C1026.43 540.262 1032.03 527.062 1039.03 510.662L1023.93 513.162C1020.93 513.662 1018.43 514.062 1016.63 514.562C1014.73 514.762 1013.33 514.762 1012.43 514.562C1011.73 514.062 1011.43 513.362 1011.43 512.462C1011.43 507.362 1012.43 504.562 1014.53 504.062L1043.93 499.862C1046.93 494.762 1050.63 488.762 1054.83 481.962C1059.03 474.962 1063.93 467.162 1069.53 458.462C1076.73 448.862 1083.53 442.262 1089.83 438.562C1092.83 437.162 1096.43 435.962 1100.63 435.062C1105.03 433.862 1110.23 433.262 1116.03 433.262C1124.93 433.262 1130.83 436.762 1133.83 443.762C1134.73 445.862 1135.23 448.062 1135.23 450.362C1135.23 455.062 1133.43 457.362 1130.03 457.362C1126.03 457.362 1122.83 453.962 1120.23 447.262C1118.83 443.262 1115.93 441.262 1111.43 441.262C1104.93 441.262 1099.03 444.162 1093.93 450.062C1092.33 451.662 1090.23 454.262 1087.63 457.762C1085.33 461.262 1082.23 465.662 1078.53 471.062C1074.53 476.862 1071.23 482.162 1068.33 486.862C1065.73 491.262 1063.63 495.162 1062.03 498.362C1062.73 498.162 1064.23 497.862 1066.53 497.662C1068.83 497.462 1071.93 497.162 1075.63 496.962C1078.43 496.762 1081.13 496.562 1083.63 496.562C1086.23 496.362 1088.63 496.262 1090.93 496.262C1100.73 496.262 1105.43 496.762 1104.93 497.662C1102.63 499.762 1086.63 503.362 1057.03 508.562C1049.83 521.162 1041.73 538.462 1032.83 560.362C1021.63 587.162 1016.03 606.162 1016.03 617.362C1016.03 621.762 1017.23 624.562 1019.53 625.762C1022.13 627.162 1023.43 627.962 1023.43 628.262C1023.63 629.862 1022.33 630.662 1019.73 630.662Z" fill="#242424"/>
<path d="M1046.03 639.862C1045.13 639.862 1044.63 639.562 1044.63 638.862C1044.63 635.862 1052.53 630.262 1068.43 622.062C1072.43 620.162 1076.03 618.362 1079.23 616.462C1082.53 614.362 1085.33 612.462 1087.63 610.862C1101.83 600.362 1108.93 591.262 1108.93 583.562C1108.93 577.762 1103.23 574.862 1091.73 574.862C1065.13 574.362 1051.83 568.562 1051.83 557.362C1051.83 552.462 1053.93 547.762 1058.13 543.362C1063.03 537.762 1071.23 532.362 1082.63 527.262C1095.03 521.662 1106.33 518.862 1116.63 518.862C1125.73 518.862 1132.63 521.062 1137.23 525.462C1139.33 527.562 1140.43 530.162 1140.43 533.162C1140.43 536.462 1139.43 539.362 1137.23 541.962C1135.13 544.562 1132.83 545.862 1130.23 545.862C1125.53 545.862 1123.03 542.762 1122.53 536.462C1122.53 532.062 1121.83 529.462 1120.43 528.762C1119.03 528.062 1115.33 527.762 1109.23 527.762C1101.53 527.762 1092.93 530.362 1083.33 535.462C1071.93 541.262 1066.53 548.262 1067.23 556.462C1067.73 561.162 1076.53 563.462 1093.83 563.462C1117.43 563.462 1129.13 569.162 1129.13 580.562C1129.13 592.962 1118.93 605.262 1098.63 617.662C1085.83 625.562 1070.13 632.562 1051.73 638.662C1049.43 639.362 1047.53 639.862 1046.03 639.862Z" fill="#242424"/>
<path d="M493.08 198.14C490.89 192.79 484.74 190.19 479.66 192.94C471.91 197.14 464.76 202.38 458.43 208.52C449.61 217.08 442.55 227.21 437.68 238.34C432.81 249.47 430.2 261.38 430.01 273.39C429.82 285.4 432.06 297.26 436.59 308.32C441.12 319.37 447.86 329.4 456.42 337.82C464.98 346.24 475.19 352.89 486.48 357.39C497.77 361.89 509.9 364.16 522.19 364.06C531 363.99 539.77 362.7 548.25 360.26C553.8 358.65 556.35 352.49 554.16 347.14C551.97 341.79 545.87 339.31 540.27 340.74C534.47 342.22 528.51 342.99 522.53 343.04C513.06 343.11 503.72 341.37 495.03 337.9C486.34 334.43 478.48 329.31 471.88 322.83C465.29 316.35 460.1 308.63 456.61 300.12C453.12 291.61 451.4 282.47 451.54 273.22C451.68 263.98 453.69 254.81 457.45 246.24C461.21 237.67 466.64 229.87 473.43 223.28C477.73 219.11 482.51 215.48 487.68 212.46C492.67 209.54 495.28 203.5 493.08 198.15V198.14Z" fill="#159BFF"/>
<path d="M654.38 125.96C659.86 122.87 661.84 115.89 658.15 110.8C652.28 102.72 645.21 95.55 637.16 89.56C626.06 81.3 613.35 75.46 599.85 72.42C586.35 69.38 572.37 69.2 558.8 71.89C545.23 74.59 532.37 80.1 521.07 88.07C509.76 96.04 500.25 106.3 493.15 118.17C486.05 130.05 481.52 143.28 479.85 157.01C478.18 170.75 479.41 184.68 483.46 197.91C486.39 207.5 490.77 216.57 496.4 224.82C499.95 230.01 507.2 230.49 511.94 226.36C516.69 222.24 517.11 215.09 513.74 209.78C510.09 204.03 507.22 197.79 505.21 191.24C502.09 181.05 501.15 170.32 502.43 159.75C503.72 149.17 507.21 138.99 512.67 129.84C518.14 120.7 525.46 112.8 534.17 106.66C542.88 100.52 552.78 96.28 563.23 94.2C573.68 92.12 584.45 92.26 594.84 94.61C605.23 96.95 615.02 101.45 623.57 107.81C629.06 111.9 633.97 116.7 638.16 122.07C642.03 127.03 648.9 129.03 654.38 125.94V125.96Z" fill="#F85977"/>
<path d="M717.58 289.76C719.96 295.58 726.65 298.41 732.16 295.38C743.02 289.39 752.69 281.4 760.63 271.78C771 259.24 778.12 244.33 781.35 228.38C784.58 212.43 783.83 195.93 779.17 180.34C774.5 164.75 766.06 150.55 754.6 139C743.13 127.45 729 118.91 713.44 114.12C697.88 109.34 681.39 108.47 665.41 111.58C649.44 114.7 634.48 121.7 621.86 131.98C612.19 139.86 604.13 149.46 598.06 160.28C594.98 165.76 597.77 172.47 603.57 174.9C609.37 177.33 615.97 174.54 619.23 169.16C623.73 161.75 629.47 155.14 636.24 149.63C645.96 141.72 657.47 136.32 669.77 133.92C682.07 131.52 694.77 132.19 706.75 135.87C718.73 139.55 729.61 146.13 738.44 155.02C747.27 163.91 753.77 174.85 757.36 186.85C760.95 198.85 761.53 211.56 759.04 223.84C756.55 236.12 751.07 247.6 743.08 257.26C737.52 263.98 730.87 269.68 723.43 274.12C718.03 277.34 715.19 283.92 717.58 289.74V289.76Z" fill="#7A67F8"/>
<path d="M750.74 333.83L729.12 281.09C728.87 280.47 728.54 279.89 728.18 279.37C726.37 276.29 723.06 274.16 718.97 274.3C699.36 274.96 678.98 278.85 659.15 285.76C638.63 292.91 619.3 303.09 602.46 315.55C596.58 319.9 597.23 328.67 603.42 332.57C607.48 335.13 612.72 334.7 616.51 331.76C630.65 320.78 647.17 311.84 664.79 305.71C681.78 299.79 699.26 296.66 715.97 296.48L728.25 326.45C709.8 328.25 690.95 332.78 672.73 339.88C650.39 348.59 629.81 360.85 612.66 375.57C606.82 380.59 608.44 389.74 615.41 393.03C619.73 395.07 624.84 394.11 628.36 390.89C642.73 377.75 660.47 366.85 679.87 359.28C699.23 351.73 719.49 347.8 738.68 347.83C741.31 347.83 743.83 347.02 745.88 345.56C750.44 343.66 752.62 338.42 750.74 333.84V333.83Z" fill="#FFFF8F"/>
</svg>
