<svg width="72" height="74" viewBox="0 0 72 74" fill="none" xmlns="http://www.w3.org/2000/svg">
<path d="M26.8495 26.1299C26.8806 26.06 26.9288 25.9963 26.9878 25.9388C27.2675 25.6653 27.7415 25.701 27.9482 26.032C27.9823 26.088 28.0072 26.1439 28.0134 26.2029C28.0864 26.8851 28.0989 27.5844 28.0274 28.2665C28.0212 28.3209 28.001 28.3753 27.9699 28.4266C27.7477 28.8042 27.2007 28.8228 26.9366 28.4748C26.9024 28.4297 26.876 28.3831 26.8558 28.3333C26.7283 28.0024 26.719 26.4267 26.848 26.1299H26.8495ZM28.7251 30.7403C28.5604 30.5818 28.2698 30.5399 28.0088 30.7046C27.7959 30.8382 27.757 31.2096 27.8378 31.3759C28.1191 31.9493 28.4594 32.5025 28.8448 33.0137C28.952 33.1567 29.3995 33.2996 29.6326 33.1411C29.8797 32.9733 29.903 32.4621 29.7149 32.1839C29.3513 31.6463 29.1773 31.1754 28.7251 30.7403ZM35.236 46.2281C35.7285 46.385 36.361 46.3664 36.8582 46.2094C41.8991 44.6089 51.7275 41.4032 54.1516 40.5983C54.3287 40.5392 54.3287 40.2906 54.1516 40.2316C51.712 39.4189 41.7017 36.1433 36.462 34.4573C36.1496 34.3563 35.7425 34.4122 35.4178 34.5148C33.3853 35.1503 22.3417 38.7491 17.8462 40.2114C17.6691 40.2689 17.6691 40.519 17.8462 40.5781C20.2921 41.397 30.1516 44.6167 35.236 46.2281ZM44.5345 7.82185C44.2905 7.98345 44.1989 8.2989 44.3107 8.56772C44.4117 8.80858 44.505 9.03856 44.5765 9.27475C45.0846 10.9514 44.2175 12.2862 42.4833 12.5208C39.9909 12.8565 37.2156 11.2358 35.901 8.72001C35.7161 8.36572 35.3929 8.0425 35.0604 7.81097C34.271 7.26244 34.271 6.21512 35.0666 5.6728C35.3805 5.45837 35.6757 5.15225 35.8591 4.82127C37.2203 2.37542 39.2124 0.908542 42.0793 0.899219C43.7715 0.893003 44.867 2.01181 44.6883 3.47403C44.6775 3.55794 44.6386 3.63719 44.5811 3.71489C44.3154 4.08005 43.728 4.03033 43.5462 3.61544C43.526 3.57038 43.512 3.52531 43.5074 3.4787C43.3939 2.55723 43.1002 2.2076 42.1695 2.11903C40.4959 1.95898 38.5224 3.02029 37.4891 4.55555C37.2125 4.96578 37.5031 5.51741 37.9972 5.51741C38.5193 5.51741 39.0337 5.51741 39.548 5.51741C40.8673 5.51741 42.1881 5.52984 43.5074 5.51275C44.247 5.50343 44.9354 5.56248 45.1794 6.41868C45.3456 7.00294 45.17 7.4023 44.536 7.8234L44.5345 7.82185ZM43.4887 10.1791C43.4996 9.41149 42.7817 8.01453 42.2907 8.00521C40.8766 7.97724 39.4626 7.98501 38.0314 7.98967C37.5342 7.98967 37.2483 8.54752 37.5295 8.95775C38.597 10.5132 40.7041 11.587 42.3497 11.3041C42.9915 11.1938 43.4778 10.9312 43.4887 10.1791ZM37.3166 19.8692C36.8738 20.0293 36.8551 20.6928 37.2591 20.9368C37.312 20.9694 37.3663 20.9896 37.4207 20.9927C38.6545 21.0751 39.8946 21.0922 41.1299 21.0471C41.1843 21.0455 41.2371 21.0269 41.29 20.9958C41.694 20.7627 41.6909 20.0759 41.2449 19.9423C40.9528 19.8553 37.5684 19.7776 37.3166 19.8692ZM48.0525 18.5049C47.964 18.4754 47.8816 18.463 47.807 18.4816C46.6633 18.7815 45.5305 19.142 44.4179 19.5445C44.2051 19.6222 43.8663 20.0075 44.0497 20.3836C44.2548 20.8031 44.7101 20.8171 44.9292 20.7425C46.1133 20.3339 47.2212 19.9656 48.3043 19.5352C48.3571 19.515 48.3975 19.4652 48.4317 19.4C48.6119 19.0566 48.4208 18.6308 48.0525 18.5049ZM52.4765 13.5915C52.0647 13.5589 51.8363 13.7966 51.7788 13.9939C51.4431 15.1376 50.8449 16.0995 50.0493 16.9759C49.911 17.1282 49.8286 17.5384 50.0617 17.7622C50.3057 17.9984 50.7066 17.9331 50.8604 17.7963C51.8347 16.9339 52.4811 15.8602 52.8758 14.4943C52.9613 14.1991 52.9193 13.8852 52.6847 13.6863C52.6303 13.6412 52.5355 13.5946 52.4765 13.5899V13.5915ZM49.5225 7.77368C50.4626 8.50712 51.1044 9.45034 51.5985 10.5241C51.67 10.6795 52.0321 10.8395 52.3102 10.7199C52.6536 10.5723 52.6785 10.2288 52.6179 10.0408C52.1999 8.72777 51.4292 7.6416 50.2637 6.88174C49.9483 6.67662 49.594 6.80249 49.4417 7.11793C49.3609 7.28575 49.364 7.48776 49.4417 7.65869C49.4619 7.70375 49.4883 7.74571 49.5241 7.77368H49.5225ZM34.1482 19.6579C34.0596 19.6284 33.9773 19.616 33.9027 19.6346C32.759 19.9345 31.6262 20.295 30.5136 20.6975C30.3008 20.7752 29.962 21.1605 30.1454 21.5366C30.3505 21.9561 30.8058 21.9701 31.0249 21.8955C32.209 21.4869 33.3169 21.1186 34.4 20.6882C34.4528 20.668 34.4932 20.6182 34.5274 20.553C34.7076 20.2096 34.5165 19.7838 34.1482 19.6579ZM34.8335 49.0966C32.86 52.007 30.8757 54.9113 28.9162 57.8311C28.5386 58.3936 28.1113 58.3314 27.5721 58.1558C20.4164 55.825 13.256 53.5065 6.09719 51.1819C5.09337 50.8556 5.00946 50.5837 5.61703 49.6824C6.99068 47.6452 8.36744 45.6112 9.74264 43.5756C9.87317 43.3829 10.0161 43.1778 10.0969 42.9851C10.201 42.7349 10.0674 42.3744 9.90736 42.2641C9.74264 42.1506 9.35417 42.1724 9.15527 42.3278C8.7093 42.6759 5.9216 47.0268 4.48269 49.1743C3.55501 50.5588 3.98544 51.7833 5.59373 52.3069C12.824 54.6595 20.0559 57.0044 27.2877 59.3477C28.5821 59.7672 29.2286 59.5372 30.0009 58.4029C31.9852 55.4878 33.9509 52.5602 35.9616 49.6638C36.2553 49.2395 36.6811 48.9241 37.1706 48.7625C43.7591 46.5964 50.3585 44.4644 56.9564 42.3247C57.1537 42.261 57.4132 42.247 57.5282 42.1102C57.7038 41.9036 57.9229 41.5602 57.8561 41.3675C57.7908 41.181 57.3977 41.0722 57.1289 41.0101C56.9766 40.9743 56.7855 41.0986 56.6145 41.1546C50.0198 43.2912 43.4281 45.4356 36.8271 47.5504C36.3905 47.6903 35.8373 47.7416 35.41 47.6048C27.6451 45.1248 19.8912 42.6137 12.1419 40.0902C11.7643 39.9674 11.4364 39.7234 11.2111 39.3956C9.53597 36.9637 7.88573 34.5148 6.23859 32.0643C5.76621 31.3603 5.88897 31.0263 6.71564 30.7574C13.9459 28.4048 21.1794 26.0615 28.4081 23.7012C29.0017 23.5069 29.3669 23.6468 29.7103 24.1627C30.9705 26.0569 32.2633 27.9309 33.5438 29.8111C33.9773 30.4482 34.4124 31.0869 34.8754 31.769C34.9454 31.8716 34.9019 32.0145 34.7869 32.0596C34.6035 32.1326 34.4528 32.1917 34.2974 32.243C27.9513 34.3081 21.6067 36.3717 15.2605 38.4353C15.0648 38.499 14.8115 38.5176 14.6903 38.6528C14.524 38.8377 14.3096 39.1889 14.3826 39.3334C14.4898 39.5447 14.8208 39.7048 15.0818 39.7576C15.2807 39.798 15.52 39.6349 15.7407 39.5634C22.309 37.4299 28.8743 35.2933 35.4473 33.1753C35.7658 33.0727 36.1698 33.0479 36.4822 33.1473C44.2843 35.6631 52.0818 38.1975 59.8715 40.749C60.2103 40.8593 60.5739 41.108 60.7743 41.3986C62.6949 44.1894 64.5845 47.0004 66.4756 49.8114C66.9806 50.5635 66.8687 50.8727 65.9877 51.1586C58.7807 53.5003 51.5706 55.8296 44.3667 58.1838C43.7327 58.3905 43.3629 58.246 43.0039 57.7067C41.5417 55.5111 40.0484 53.3372 38.5675 51.1539C38.2909 50.7468 38.0081 50.1921 37.4285 50.6008C36.8442 51.0125 37.3057 51.4725 37.573 51.8672C39.0088 53.9914 40.4477 56.1124 41.8898 58.232C42.5626 59.2218 43.8088 59.6491 44.9463 59.2808C48.124 58.2522 51.3002 57.2204 54.4779 56.1901C56.2898 55.6028 58.1016 55.0169 59.9741 54.4109C60.0937 54.3721 60.2196 54.456 60.2273 54.5818C60.2398 54.7761 60.2522 54.9377 60.2522 55.0977C60.2553 57.7347 60.2553 60.3717 60.2522 63.0102C60.2522 64.3388 59.8529 64.8998 58.5942 65.2774C51.3608 67.4497 44.1289 69.6267 36.8846 71.7602C36.3283 71.9249 35.6369 71.9125 35.0775 71.7478C27.858 69.6174 20.651 67.445 13.4409 65.2851C12.1761 64.906 11.7518 64.3543 11.7503 63.046C11.7472 60.9513 11.7456 58.8566 11.7518 56.7635C11.7518 56.3176 11.7068 55.8638 11.1629 55.8483C10.5647 55.8312 10.5134 56.3051 10.5149 56.7822C10.5211 58.8768 10.5149 60.9715 10.5196 63.0646C10.5243 64.8873 11.3199 65.9393 13.0882 66.4692C20.2983 68.6276 27.5037 70.803 34.7263 72.9132C35.4784 73.1339 36.4014 73.1743 37.1457 72.9567C44.4459 70.8263 51.7275 68.6307 59.0075 66.4381C60.7277 65.9191 61.4782 64.8562 61.4813 63.0444C61.486 60.3297 61.5078 57.6151 61.4658 54.9004C61.4549 54.1763 61.6165 53.8033 62.3779 53.6044C63.7267 53.2533 65.0444 52.7778 66.3699 52.3365C68.0528 51.7771 68.4599 50.5619 67.4639 49.0857C65.6427 46.3835 63.8262 43.6797 61.9786 40.9945C61.6802 40.561 61.6818 40.272 61.9786 39.8415C63.6086 37.4796 65.2107 35.0975 66.8081 32.7122C67.6876 31.3992 67.2789 30.1157 65.8074 29.6371C58.4792 27.2487 51.1479 24.8728 43.8135 22.5031C42.7397 22.1566 42.0327 22.4099 41.3941 23.3376C40.3514 24.8495 39.3243 26.3708 38.2909 27.8889C37.9273 28.4235 37.5155 28.9347 37.2281 29.5065C37.141 29.6806 37.1783 30.1654 37.4161 30.2695C37.8325 30.4498 38.1215 30.2291 38.207 30.1514C38.3236 30.0473 38.4852 29.8904 38.5877 29.7412C39.8541 27.8827 41.0662 26.0087 42.3155 24.1378C42.6403 23.6514 42.9961 23.5131 43.5571 23.6965C50.7858 26.0507 58.0208 28.3908 65.2527 30.7403C66.1353 31.0278 66.2347 31.365 65.6986 32.1668C64.9947 33.2204 64.283 34.2692 63.5729 35.3181C62.6141 36.7368 61.6538 38.1556 60.7059 39.5572C60.6655 39.6178 60.5925 39.6504 60.5195 39.6411C60.4464 39.6318 60.3905 39.6255 60.3408 39.6085C52.5417 37.0787 44.7427 34.5521 36.953 31.9974C36.5972 31.8809 36.2398 31.5763 36.0222 31.2625C34.2228 28.6705 32.4591 26.0553 30.6815 23.4494C29.9589 22.3928 29.2938 22.1519 28.0911 22.5404C20.8064 24.8961 13.5233 27.2549 6.2417 29.62C4.72199 30.1141 4.29466 31.3883 5.19593 32.7309C6.94251 35.3337 8.69531 37.9334 10.4637 40.5222C10.6424 40.7832 10.9034 40.979 11.2049 41.0769C16.7647 42.8918 22.3292 44.6882 27.8938 46.4907C30.1625 47.2257 32.4296 47.9653 34.7636 48.7252C34.8692 48.7594 34.9252 48.8759 34.8848 48.98C34.8646 49.0329 34.849 49.0702 34.8257 49.1028L34.8335 49.0966Z" fill="#EBEDF0"/>
</svg>
