<svg width="72" height="73" viewBox="0 0 72 73" fill="none" xmlns="http://www.w3.org/2000/svg">
<path d="M10.3458 60.6009C15.3469 57.9205 20.6481 57.0623 26.0223 56.443C30.9764 55.8725 35.9451 55.8091 40.9105 56.009C46.9012 56.2512 52.8497 56.9014 58.5597 58.9007C59.799 59.3346 60.9848 59.9263 62.3377 60.5066C62.0587 59.7784 61.7991 59.1006 61.5412 58.4228C61.3774 57.9937 61.2005 57.5613 61.0789 57.1322C60.928 56.5958 61.0237 56.3991 61.2492 56.2593C61.6856 55.9879 62.0927 56.2512 62.2533 56.6673C62.6864 57.8019 63.1179 58.9364 63.5527 60.071C63.9404 61.0787 64.3248 62.0865 64.7239 63.0894C65.1343 64.1199 65.0613 65.1358 64.2113 65.838C63.2883 66.602 62.2663 67.3107 61.1778 67.7967C57.9984 69.2157 54.5935 69.8675 51.174 70.3892C42.9869 71.6408 34.7626 71.8131 26.5252 71.015C21.5484 70.5323 16.5943 69.8382 11.9095 67.9592C10.8227 67.5236 9.77314 66.9059 8.83877 66.1972C7.64162 65.2886 7.53131 64.3004 8.05365 62.8846C10.276 56.8607 15.0241 42.5894 15.2755 41.5134C15.5772 40.7348 15.5269 40.3983 16.2602 40.5235C17.0842 40.6649 16.8052 41.3736 16.669 41.8417C15.767 44.9463 14.904 48.0671 13.8675 51.1278C12.8569 54.117 11.6548 57.0412 10.5372 59.9946C10.482 60.1392 10.4431 60.2888 10.3474 60.6009H10.3458ZM30.0713 57.4491C29.9691 57.4443 29.836 57.4166 29.7079 57.4329C26.3662 57.8636 23.0067 58.1903 19.6894 58.7657C16.7955 59.268 13.9518 60.0742 11.3985 61.6086C10.6945 62.0312 10.0278 62.5855 9.49251 63.2081C8.78687 64.0273 8.84689 64.6482 9.72123 65.2756C10.5891 65.8982 11.5413 66.4557 12.5357 66.8393C17.6828 68.8288 23.1041 69.4741 28.5513 69.9081C35.3335 70.4494 42.1077 70.295 48.8608 69.4335C52.6712 68.9475 56.459 68.3168 60.0472 66.8864C61.134 66.4541 62.143 65.7925 63.1228 65.1375C63.7895 64.6921 63.8722 63.9476 63.3094 63.3804C62.5794 62.6424 61.7975 61.8996 60.9053 61.3892C58.6392 60.0954 56.128 59.4305 53.5959 58.8698C49.2063 57.8994 44.7502 57.4686 40.2682 57.3126C37.7311 57.2248 35.1876 57.2671 32.6489 57.3126C32.2579 57.3191 31.7129 57.5564 31.5117 57.8653C30.1962 59.8727 30.1086 61.9939 31.3365 64.0598C32.5629 66.1225 34.4592 67.1205 36.8535 66.8962C40.4645 66.5597 42.703 63.4405 42.0444 59.806C41.9617 59.3525 41.8044 58.8324 42.4548 58.6861C43.0356 58.5561 43.1799 59.0209 43.2886 59.4549C43.9651 62.1743 42.8588 65.1472 40.5456 66.8425C38.1869 68.5687 35.0497 68.6744 32.5434 67.1107C30.1345 65.6088 28.8206 62.7123 29.3461 59.9279C29.5035 59.0925 29.8231 58.2862 30.0761 57.4459L30.0713 57.4491ZM57.455 42.3098C55.57 41.7864 53.6591 41.8157 51.7482 42.1018C46.8882 42.8267 42.4613 44.7073 38.3167 47.2772C36.9654 48.1143 35.7002 49.0928 34.43 50.0518C33.6562 50.6353 33.554 51.396 34.0666 52.0104C34.5517 52.5923 35.2897 52.6183 36.0132 52.0738C36.1852 51.9438 36.3474 51.7991 36.5177 51.6675C40.8262 48.3223 45.5986 45.9443 50.9598 44.8455C53.0054 44.4261 55.0834 44.2148 57.1289 44.8975C58.8646 45.4762 59.8022 46.7538 59.8947 48.5905C59.9823 50.32 59.2361 51.5732 57.6918 52.2949C55.9788 53.0962 54.2009 52.8735 52.9437 51.7211C52.7507 51.5439 52.522 51.3586 52.2787 51.2887C51.7077 51.1213 51.1951 51.2774 50.856 51.7877C50.4748 52.3632 50.5754 52.9256 51.0215 53.4197C52.4198 54.9736 54.2188 55.4385 56.2286 55.3149C59.7747 55.0988 62.4967 52.3095 62.4853 48.9075C62.4739 45.5672 60.6717 43.2038 57.455 42.3115V42.3098ZM19.7024 37.9959C24.0173 37.1491 27.8959 35.1823 31.7421 33.1407C34.6701 31.5868 37.6338 30.0996 40.591 28.6009C41.3469 28.2173 41.694 27.5931 41.4377 26.917C41.162 26.1888 40.4693 25.875 39.6307 26.2229C38.2616 26.7918 36.8941 27.3753 35.5817 28.0629C32.8095 29.516 30.1134 31.1155 27.3168 32.5198C22.8267 34.7759 18.1257 36.2908 13.0077 36.0194C9.04154 35.8097 5.31544 34.9239 2.25604 32.1639C1.63638 31.6047 0.870715 31.6275 0.372711 32.1557C-0.159358 32.7198 -0.144759 33.5097 0.565748 34.0672C1.60069 34.88 2.65996 35.6976 3.81656 36.312C6.71212 37.8464 9.84452 38.4283 13.0807 38.6689C13.7101 38.716 14.3411 38.6997 14.9689 38.6282C16.5522 38.4462 18.1419 38.3015 19.6992 37.9959H19.7024ZM55.5116 38.8509C55.5538 39.306 55.6836 39.7693 56.2546 39.701C56.8223 39.6327 56.8142 39.1581 56.7883 38.6997C56.6698 36.4973 56.5579 34.2948 56.4557 32.0907C56.4346 31.6307 56.2757 31.3008 55.7858 31.317C55.57 31.3251 55.2764 31.3576 55.1969 32.0826C55.1012 32.9636 55.3851 37.4839 55.5116 38.8509ZM17.4849 30.649C17.4184 30.4051 17.0842 30.0735 16.875 30.0768C16.6625 30.08 16.2959 30.4311 16.2748 30.6571C16.2001 31.46 16.2001 32.2776 16.2715 33.0822C16.2764 33.1326 16.2959 33.1798 16.3251 33.2269C16.5538 33.5861 17.0777 33.5991 17.36 33.2789C17.42 33.2123 17.4654 33.1407 17.4881 33.0627C17.5871 32.7328 17.5871 32.3752 17.5644 32.0013C17.5595 31.9087 17.5563 31.8144 17.5579 31.7217C17.5628 31.4698 17.5611 30.9302 17.4833 30.6473L17.4849 30.649ZM38.5714 9.0534C36.6978 9.05015 36.2858 9.04528 34.5728 9.05991C32.0227 9.08104 29.596 9.6727 27.2779 10.7179C25.2632 11.6265 23.4528 12.8472 21.9069 14.4255C21.8664 14.4677 21.8372 14.5197 21.8177 14.5815C21.6782 15.0041 22.0529 15.4137 22.4958 15.3698C22.8218 15.3373 23.0246 15.0854 23.1641 14.9586C24.9988 13.2682 27.1092 12.0475 29.4597 11.2201C32.305 10.2172 35.2541 10.2318 38.1999 10.3473C43.9748 10.5748 48.5509 13.0894 51.9656 17.7414C52.11 17.9364 52.1392 18.0551 52.4165 18.3005C52.6777 18.5313 53.02 18.4793 53.2049 18.3428C53.5504 18.0876 53.4693 17.6422 53.0735 17.0944C50.5592 13.5169 47.2029 11.0901 43.0194 9.83361C42.4159 9.65319 42.1775 9.20294 42.0801 8.54302C41.8757 7.13864 41.6632 5.92606 41.136 4.62084C40.3022 2.55328 38.6217 1.49838 36.3604 1.5C34.0731 1.50163 32.4347 2.57767 31.5085 4.6566C31.1711 5.41405 31.0008 6.24465 30.7655 7.04599C30.6341 7.49299 30.7169 7.89447 31.2197 8.00175C31.734 8.11065 31.8962 7.74168 32.0179 7.30444C32.2336 6.52748 32.4283 5.72939 32.7689 5.00607C33.4892 3.47491 34.7804 2.73046 36.5015 2.78247C38.0864 2.83123 39.2786 3.27985 39.9178 4.73462C40.3947 5.81879 40.7629 7.0655 40.4628 7.9026C40.1254 8.84535 39.1716 9.05178 38.5698 9.05178L38.5714 9.0534ZM21.9994 22.5071C22.452 19.5619 21.1494 16.5743 18.8199 15.2187C15.5383 13.3072 11.3288 14.8627 10.4755 18.3005C10.2874 19.058 10.6037 19.7244 11.2558 19.9503C11.9647 20.1974 12.7433 19.8837 12.9104 19.0856C13.3922 16.771 16.5781 16.2118 18.2619 18.0388C19.6375 19.531 19.7721 21.3466 19.193 23.2028C18.6577 24.9177 17.3081 25.6946 15.621 25.9661C13.8951 26.2424 12.2307 25.9254 10.6021 25.3793C7.50698 24.3423 4.8515 22.551 2.33391 20.5241C1.58609 19.9227 0.815561 19.9422 0.322424 20.5339C-0.185313 21.1434 -0.102582 21.9366 0.697144 22.4876C2.78324 23.9229 4.85474 25.4004 7.05277 26.6504C9.2508 27.9003 11.6792 28.5846 14.2471 28.635C18.5442 28.6984 21.3959 26.4439 22.001 22.5088L21.9994 22.5071ZM54.2609 28.4254C55.583 29.5957 57.1662 30.1646 58.8971 30.3352C61.6629 30.6083 64.1659 29.9013 66.5148 28.4172C67.9666 27.5021 69.5076 26.7073 71.0714 25.9986C72.0577 25.5516 72.1956 25.4914 71.7787 24.4967C69.8386 19.8707 64.1723 16.5922 59.2166 17.244C56.7866 17.5626 54.6859 18.5573 53.5748 20.8167C52.921 21.9106 52.4279 22.1999 51.0004 22.6112C49.3669 23.1069 47.7918 23.5117 46.2247 24.0773C45.485 24.3455 45.266 25.1062 45.5613 25.7515C45.8614 26.4066 46.5151 26.665 47.2613 26.4066C47.49 26.3269 50.8479 25.22 52.4668 24.7242C52.6242 26.3692 53.2309 27.5151 54.2609 28.4254Z" fill="#1C1B1F"/>
</svg>
