<svg width="72" height="73" viewBox="0 0 72 73" fill="none" xmlns="http://www.w3.org/2000/svg">
<path d="M26.8495 25.6292C26.8806 25.5592 26.9288 25.4955 26.9878 25.438C27.2675 25.1645 27.7415 25.2003 27.9482 25.5313C27.9823 25.5872 28.0072 25.6431 28.0134 25.7022C28.0864 26.3844 28.0989 27.0836 28.0274 27.7658C28.0212 27.8202 28.001 27.8745 27.9699 27.9258C27.7477 28.3034 27.2007 28.3221 26.9366 27.974C26.9024 27.9289 26.876 27.8823 26.8558 27.8326C26.7283 27.5016 26.719 25.926 26.848 25.6292H26.8495ZM28.7251 30.2396C28.5604 30.0811 28.2698 30.0391 28.0088 30.2038C27.7959 30.3375 27.757 30.7089 27.8378 30.8751C28.1191 31.4485 28.4594 32.0017 28.8448 32.5129C28.952 32.6559 29.3995 32.7989 29.6326 32.6404C29.8797 32.4725 29.903 31.9613 29.7149 31.6832C29.3513 31.1455 29.1773 30.6747 28.7251 30.2396ZM35.236 45.7273C35.7285 45.8843 36.361 45.8656 36.8582 45.7087C41.8991 44.1082 51.7275 40.9025 54.1516 40.0975C54.3287 40.0385 54.3287 39.7899 54.1516 39.7308C51.712 38.9181 41.7017 35.6425 36.462 33.9565C36.1496 33.8555 35.7425 33.9115 35.4178 34.014C33.3853 34.6496 22.3417 38.2484 17.8462 39.7106C17.6691 39.7681 17.6691 40.0183 17.8462 40.0773C20.2921 40.8962 30.1516 44.1159 35.236 45.7273ZM44.5345 7.32109C44.2905 7.4827 44.1989 7.79814 44.3107 8.06697C44.4117 8.30782 44.505 8.5378 44.5765 8.77399C45.0846 10.4507 44.2175 11.7855 42.4833 12.0201C39.9909 12.3557 37.2156 10.735 35.901 8.21925C35.7161 7.86496 35.3929 7.54175 35.0604 7.31022C34.271 6.76169 34.271 5.71436 35.0666 5.17205C35.3805 4.95761 35.6757 4.65149 35.8591 4.32051C37.2203 1.87467 39.2124 0.407787 42.0793 0.398463C43.7715 0.392248 44.867 1.51106 44.6883 2.97328C44.6775 3.05719 44.6386 3.13644 44.5811 3.21413C44.3154 3.5793 43.728 3.52957 43.5462 3.11468C43.526 3.06962 43.512 3.02456 43.5074 2.97794C43.3939 2.05648 43.1002 1.70685 42.1695 1.61828C40.4959 1.45822 38.5224 2.51954 37.4891 4.05479C37.2125 4.46502 37.5031 5.01666 37.9972 5.01666C38.5193 5.01666 39.0337 5.01666 39.548 5.01666C40.8673 5.01666 42.1881 5.02909 43.5074 5.012C44.247 5.00267 44.9354 5.06172 45.1794 5.91792C45.3456 6.50219 45.17 6.90154 44.536 7.32265L44.5345 7.32109ZM43.4887 9.67836C43.4996 8.91074 42.7817 7.51378 42.2907 7.50445C40.8766 7.47648 39.4626 7.48425 38.0314 7.48892C37.5342 7.48892 37.2483 8.04677 37.5295 8.457C38.597 10.0125 40.7041 11.0862 42.3497 10.8034C42.9915 10.6931 43.4778 10.4305 43.4887 9.67836ZM37.3166 19.3685C36.8738 19.5285 36.8551 20.1921 37.2591 20.436C37.312 20.4687 37.3663 20.4889 37.4207 20.492C38.6545 20.5743 39.8946 20.5914 41.1299 20.5463C41.1843 20.5448 41.2371 20.5261 41.29 20.4951C41.694 20.262 41.6909 19.5752 41.2449 19.4415C40.9528 19.3545 37.5684 19.2768 37.3166 19.3685ZM48.0525 18.0042C47.964 17.9746 47.8816 17.9622 47.807 17.9809C46.6633 18.2808 45.5305 18.6413 44.4179 19.0437C44.2051 19.1214 43.8663 19.5068 44.0497 19.8828C44.2548 20.3024 44.7101 20.3164 44.9292 20.2418C46.1133 19.8331 47.2212 19.4648 48.3043 19.0344C48.3571 19.0142 48.3975 18.9645 48.4317 18.8992C48.6119 18.5558 48.4208 18.13 48.0525 18.0042ZM52.4765 13.0907C52.0647 13.0581 51.8363 13.2958 51.7788 13.4932C51.4431 14.6369 50.8449 15.5987 50.0493 16.4751C49.911 16.6274 49.8286 17.0376 50.0617 17.2614C50.3057 17.4976 50.7066 17.4323 50.8604 17.2956C51.8347 16.4332 52.4811 15.3594 52.8758 13.9935C52.9613 13.6983 52.9193 13.3844 52.6847 13.1855C52.6303 13.1405 52.5355 13.0938 52.4765 13.0892V13.0907ZM49.5225 7.27292C50.4626 8.00636 51.1044 8.94958 51.5985 10.0233C51.67 10.1787 52.0321 10.3388 52.3102 10.2191C52.6536 10.0715 52.6785 9.72809 52.6179 9.54007C52.1999 8.22702 51.4292 7.14084 50.2637 6.38098C49.9483 6.17587 49.594 6.30173 49.4417 6.61718C49.3609 6.785 49.364 6.98701 49.4417 7.15793C49.4619 7.203 49.4883 7.24495 49.5241 7.27292H49.5225ZM34.1482 19.1572C34.0596 19.1276 33.9773 19.1152 33.9027 19.1339C32.759 19.4338 31.6262 19.7943 30.5136 20.1967C30.3008 20.2744 29.962 20.6598 30.1454 21.0358C30.3505 21.4554 30.8058 21.4694 31.0249 21.3948C32.209 20.9861 33.3169 20.6178 34.4 20.1874C34.4528 20.1672 34.4932 20.1175 34.5274 20.0522C34.7076 19.7088 34.5165 19.283 34.1482 19.1572ZM34.8335 48.5958C32.86 51.5063 30.8757 54.4105 28.9162 57.3303C28.5386 57.8928 28.1113 57.8307 27.5721 57.6551C20.4164 55.3242 13.256 53.0058 6.09719 50.6812C5.09337 50.3548 5.00946 50.0829 5.61703 49.1816C6.99068 47.1445 8.36744 45.1104 9.74264 43.0748C9.87317 42.8821 10.0161 42.677 10.0969 42.4843C10.201 42.2341 10.0674 41.8736 9.90736 41.7633C9.74264 41.6499 9.35417 41.6716 9.15527 41.827C8.7093 42.1751 5.9216 46.526 4.48269 48.6735C3.55501 50.058 3.98544 51.2825 5.59373 51.8062C12.824 54.1588 20.0559 56.5036 27.2877 58.8469C28.5821 59.2665 29.2286 59.0365 30.0009 57.9021C31.9852 54.987 33.9509 52.0595 35.9616 49.163C36.2553 48.7388 36.6811 48.4233 37.1706 48.2617C43.7591 46.0956 50.3585 43.9636 56.9564 41.8239C57.1537 41.7602 57.4132 41.7462 57.5282 41.6095C57.7038 41.4028 57.9229 41.0594 57.8561 40.8667C57.7908 40.6802 57.3977 40.5715 57.1289 40.5093C56.9766 40.4736 56.7855 40.5979 56.6145 40.6538C50.0198 42.7904 43.4281 44.9348 36.8271 47.0497C36.3905 47.1895 35.8373 47.2408 35.41 47.1041C27.6451 44.6241 19.8912 42.1129 12.1419 39.5894C11.7643 39.4666 11.4364 39.2227 11.2111 38.8948C9.53597 36.463 7.88573 34.014 6.23859 31.5635C5.76621 30.8596 5.88897 30.5255 6.71564 30.2567C13.9459 27.9041 21.1794 25.5608 28.4081 23.2004C29.0017 23.0062 29.3669 23.146 29.7103 23.6619C30.9705 25.5561 32.2633 27.4301 33.5438 29.3104C33.9773 29.9475 34.4124 30.5861 34.8754 31.2683C34.9454 31.3708 34.9019 31.5138 34.7869 31.5588C34.6035 31.6319 34.4528 31.6909 34.2974 31.7422C27.9513 33.8073 21.6067 35.8709 15.2605 37.9345C15.0648 37.9982 14.8115 38.0169 14.6903 38.1521C14.524 38.337 14.3096 38.6881 14.3826 38.8327C14.4898 39.044 14.8208 39.204 15.0818 39.2569C15.2807 39.2973 15.52 39.1341 15.7407 39.0626C22.309 36.9291 28.8743 34.7925 35.4473 32.6745C35.7658 32.572 36.1698 32.5471 36.4822 32.6466C44.2843 35.1623 52.0818 37.6968 59.8715 40.2483C60.2103 40.3586 60.5739 40.6072 60.7743 40.8978C62.6949 43.6886 64.5845 46.4996 66.4756 49.3106C66.9806 50.0627 66.8687 50.3719 65.9877 50.6578C58.7807 52.9996 51.5706 55.3289 44.3667 57.683C43.7327 57.8897 43.3629 57.7452 43.0039 57.206C41.5417 55.0103 40.0484 52.8364 38.5675 50.6532C38.2909 50.2461 38.0081 49.6913 37.4285 50.1C36.8442 50.5118 37.3057 50.9717 37.573 51.3664C39.0088 53.4906 40.4477 55.6117 41.8898 57.7312C42.5626 58.721 43.8088 59.1484 44.9463 58.7801C48.124 57.7514 51.3002 56.7196 54.4779 55.6894C56.2898 55.102 58.1016 54.5162 59.9741 53.9102C60.0937 53.8713 60.2196 53.9552 60.2273 54.0811C60.2398 54.2753 60.2522 54.4369 60.2522 54.597C60.2553 57.234 60.2553 59.8709 60.2522 62.5095C60.2522 63.838 59.8529 64.399 58.5942 64.7766C51.3608 66.949 44.1289 69.126 36.8846 71.2595C36.3283 71.4242 35.6369 71.4118 35.0775 71.247C27.858 69.1166 20.651 66.9443 13.4409 64.7844C12.1761 64.4052 11.7518 63.8536 11.7503 62.5452C11.7472 60.4505 11.7456 58.3559 11.7518 56.2628C11.7518 55.8168 11.7068 55.3631 11.1629 55.3475C10.5647 55.3304 10.5134 55.8044 10.5149 56.2814C10.5211 58.3761 10.5149 60.4707 10.5196 62.5638C10.5243 64.3866 11.3199 65.4386 13.0882 65.9684C20.2983 68.1268 27.5037 70.3023 34.7263 72.4125C35.4784 72.6331 36.4014 72.6735 37.1457 72.456C44.4459 70.3256 51.7275 68.1299 59.0075 65.9374C60.7277 65.4184 61.4782 64.3555 61.4813 62.5436C61.486 59.829 61.5078 57.1143 61.4658 54.3996C61.4549 53.6755 61.6165 53.3026 62.3779 53.1037C63.7267 52.7525 65.0444 52.277 66.3699 51.8357C68.0528 51.2763 68.4599 50.0612 67.4639 48.5849C65.6427 45.8827 63.8262 43.1789 61.9786 40.4938C61.6802 40.0602 61.6818 39.7712 61.9786 39.3408C63.6086 36.9789 65.2107 34.5967 66.8081 32.2115C67.6876 30.8984 67.2789 29.6149 65.8074 29.1363C58.4792 26.748 51.1479 24.3721 43.8135 22.0024C42.7397 21.6558 42.0327 21.9091 41.3941 22.8368C40.3514 24.3487 39.3243 25.87 38.2909 27.3882C37.9273 27.9227 37.5155 28.434 37.2281 29.0058C37.141 29.1798 37.1783 29.6646 37.4161 29.7688C37.8325 29.949 38.1215 29.7284 38.207 29.6507C38.3236 29.5465 38.4852 29.3896 38.5877 29.2404C39.8541 27.382 41.0662 25.508 42.3155 23.6371C42.6403 23.1507 42.9961 23.0124 43.5571 23.1957C50.7858 25.5499 58.0208 27.8901 65.2527 30.2396C66.1353 30.5271 66.2347 30.8643 65.6986 31.6661C64.9947 32.7196 64.283 33.7685 63.5729 34.8174C62.6141 36.2361 61.6538 37.6548 60.7059 39.0564C60.6655 39.117 60.5925 39.1497 60.5195 39.1403C60.4464 39.131 60.3905 39.1248 60.3408 39.1077C52.5417 36.5779 44.7427 34.0513 36.953 31.4967C36.5972 31.3801 36.2398 31.0756 36.0222 30.7617C34.2228 28.1698 32.4591 25.5546 30.6815 22.9487C29.9589 21.892 29.2938 21.6512 28.0911 22.0396C20.8064 24.3954 13.5233 26.7542 6.2417 29.1192C4.72199 29.6134 4.29466 30.8876 5.19593 32.2301C6.94251 34.8329 8.69531 37.4326 10.4637 40.0214C10.6424 40.2825 10.9034 40.4782 11.2049 40.5761C16.7647 42.3911 22.3292 44.1874 27.8938 45.9899C30.1625 46.7249 32.4296 47.4646 34.7636 48.2244C34.8692 48.2586 34.9252 48.3752 34.8848 48.4793C34.8646 48.5321 34.849 48.5694 34.8257 48.602L34.8335 48.5958Z" fill="#1C1B1F"/>
</svg>
