<svg width="366" height="327" viewBox="0 0 366 327" fill="none" xmlns="http://www.w3.org/2000/svg">
<path d="M94.0576 93.7261C94.0576 87.9481 89.3603 83.2058 83.6157 83.8264C74.8487 84.7737 66.2454 86.911 58.0633 90.1891C46.6517 94.7609 36.2829 101.462 27.5488 109.91C18.8148 118.357 11.8865 128.386 7.15971 139.424C2.43287 150.461 -3.92621e-07 162.291 0 174.238C3.92621e-07 186.185 2.43287 198.015 7.15971 209.052C11.8865 220.089 18.8148 230.118 27.5488 238.566C36.2829 247.014 46.6517 253.715 58.0633 258.287C66.2454 261.565 74.8487 263.702 83.6157 264.649C89.3603 265.27 94.0576 260.528 94.0576 254.75C94.0576 248.972 89.3512 244.363 83.6296 243.558C77.7055 242.724 71.8976 241.181 66.342 238.955C57.5551 235.435 49.5711 230.275 42.8458 223.77C36.1206 217.266 30.7859 209.544 27.1462 201.045C23.5066 192.546 21.6332 183.437 21.6332 174.238C21.6332 165.039 23.5066 155.93 27.1462 147.431C30.7859 138.932 36.1206 131.21 42.8458 124.705C49.5711 118.2 57.5551 113.041 66.342 109.52C71.8976 107.294 77.7055 105.752 83.6296 104.918C89.3512 104.113 94.0576 99.5041 94.0576 93.7261Z" fill="#159BFF"/>
<path d="M270.681 88.1182C276.918 87.3398 281.408 81.6278 279.919 75.5212C277.553 65.8162 273.725 56.5037 268.549 47.909C261.411 36.0563 251.867 25.8322 240.533 17.8964C229.199 9.96059 216.327 4.48958 202.748 1.83647C189.169 -0.81663 175.184 -0.592862 161.696 2.49333C148.209 5.57953 135.518 11.4596 124.444 19.7539C113.37 28.0482 104.158 38.5725 97.4027 50.6475C90.6475 62.7224 86.4994 76.0796 85.226 89.8569C84.3027 99.8473 84.9058 109.898 86.9953 119.666C88.3101 125.812 94.8374 129.003 100.792 126.992C106.747 124.981 109.853 118.524 108.75 112.336C107.555 105.627 107.261 98.7714 107.891 91.9518C108.872 81.3432 112.066 71.0582 117.267 61.7605C122.469 52.4628 129.562 44.3591 138.089 37.9724C146.617 31.5858 156.388 27.0582 166.773 24.6818C177.159 22.3054 187.927 22.1331 198.383 24.176C208.839 26.2189 218.751 30.4316 227.478 36.5421C236.205 42.6527 243.554 50.5253 249.05 59.6518C252.583 65.5188 255.301 71.8201 257.141 78.3812C258.839 84.4331 264.444 88.8967 270.681 88.1182Z" fill="#F85977"/>
<path d="M267.035 263.645C267.035 269.931 272.147 275.094 278.391 274.373C290.711 272.949 302.689 269.219 313.687 263.341C328.04 255.669 340.28 244.575 349.321 231.043C358.363 217.511 363.928 201.958 365.523 185.762C367.119 169.565 364.695 153.225 358.467 138.189C352.239 123.153 342.398 109.885 329.818 99.5604C317.237 89.2357 302.304 82.173 286.342 78.998C270.38 75.8229 253.881 76.6334 238.307 81.3578C226.374 84.9776 215.267 90.8093 205.548 98.5148C200.623 102.42 200.659 109.686 205.104 114.13C209.548 118.575 216.713 118.493 221.769 114.76C228.742 109.611 236.566 105.672 244.914 103.14C256.907 99.5018 269.611 98.8777 281.902 101.323C294.192 103.767 305.691 109.206 315.378 117.156C325.065 125.106 332.642 135.322 337.437 146.9C342.233 158.477 344.099 171.059 342.871 183.531C341.643 196.002 337.358 207.978 330.396 218.397C323.433 228.817 314.009 237.359 302.957 243.266C295.263 247.379 286.946 250.126 278.374 251.416C272.158 252.351 267.035 257.36 267.035 263.645Z" fill="#7A67F8"/>
<path d="M277.524 323.025C283.15 317.512 281.577 308.112 274.191 305.371C253.441 297.672 230.268 293.407 206.53 292.999C182.554 292.586 158.868 296.121 137.413 303.237C130.104 305.662 128.137 314.754 133.337 320.435C136.561 323.957 141.649 325.008 146.131 323.364C164.416 316.657 184.96 313.296 205.777 313.654C226.552 314.012 246.787 318.061 264.534 325.362C268.964 327.184 274.103 326.377 277.524 323.025Z" fill="#67E5AD"/>
<path d="M277.521 267.514C283.147 262.001 281.572 252.6 274.187 249.86C255.791 243.035 235.465 238.9 214.494 237.772C192.796 236.605 171.051 238.692 150.744 243.838C143.651 245.636 140.929 253.997 145.175 259.956C147.962 263.867 152.97 265.456 157.596 264.168C174.844 259.365 193.518 257.369 212.148 258.371C230.704 259.369 248.629 263.31 264.532 269.851C268.961 271.673 274.1 270.866 277.521 267.514Z" fill="#67E5AD"/>
</svg>
