<svg width="367" height="367" viewBox="0 0 367 367" fill="none" xmlns="http://www.w3.org/2000/svg">
<g clip-path="url(#clip0_14289_126640)">
<path d="M294.254 237.17C292.369 232.571 294.569 227.314 299.168 225.429C303.767 223.543 309.024 225.743 310.909 230.343L332.529 283.083C334.414 287.682 332.214 292.939 327.615 294.824C323.016 296.71 317.759 294.51 315.874 289.911L294.254 237.17Z" fill="#67E5AD"/>
<path d="M74.8691 147.4C72.6775 142.053 66.5325 139.447 61.4526 142.2C53.6999 146.402 46.5502 151.643 40.2228 157.779C31.3981 166.338 24.3457 176.471 19.4685 187.6C14.5912 198.729 11.9846 210.637 11.7974 222.642C11.6102 234.648 13.8461 246.517 18.3775 257.571C22.9089 268.625 29.647 278.648 38.207 287.068C46.7671 295.488 56.9815 302.139 68.2671 306.643C79.5527 311.146 91.6884 313.414 103.981 313.316C112.795 313.246 121.566 311.96 130.038 309.511C135.588 307.907 138.136 301.737 135.944 296.391C133.753 291.044 127.65 288.565 122.051 289.99C116.253 291.466 110.294 292.241 104.309 292.289C94.8436 292.365 85.4991 290.619 76.8092 287.151C68.1193 283.683 60.2542 278.561 53.663 272.078C47.0717 265.595 41.8834 257.877 38.3942 249.365C34.9051 240.854 33.1834 231.715 33.3276 222.47C33.4717 213.226 35.4788 204.058 39.2343 195.488C42.9897 186.919 48.42 179.116 55.2151 172.526C59.5114 168.359 64.3001 164.729 69.4653 161.71C74.4539 158.795 77.0606 152.746 74.8691 147.4Z" fill="#159BFF"/>
<path d="M236.167 75.2186C241.643 72.1326 243.631 65.1443 239.937 60.0587C234.067 51.9765 226.993 44.8116 218.944 38.8223C207.843 30.5628 195.135 24.7226 181.638 21.6787C168.141 18.6349 154.155 18.455 140.584 21.1507C127.013 23.8464 114.159 29.3578 102.849 37.3291C91.5404 45.3004 82.0285 55.5544 74.9278 67.4294C67.827 79.3044 63.2951 92.5363 61.6247 106.271C59.9543 120.006 61.1824 133.938 65.2299 147.169C68.1648 156.763 72.5349 165.834 78.1733 174.08C81.7212 179.268 88.9711 179.745 93.7183 175.625C98.4654 171.505 98.89 164.353 95.5225 159.046C91.8715 153.292 88.9996 147.06 86.9961 140.511C83.8796 130.323 82.9339 119.595 84.2201 109.019C85.5064 98.4434 88.9959 88.2548 94.4635 79.111C99.9311 69.9673 107.255 62.0717 115.963 55.9338C124.671 49.7959 134.569 45.5521 145.019 43.4764C155.469 41.4007 166.237 41.5393 176.63 43.883C187.023 46.2268 196.809 50.7238 205.356 57.0836C210.85 61.172 215.755 65.9718 219.946 71.3445C223.813 76.3002 230.691 78.3045 236.167 75.2186Z" fill="#F85977"/>
<path d="M299.37 239.012C301.754 244.828 308.443 247.666 313.947 244.631C324.807 238.641 334.475 230.646 342.421 221.036C352.791 208.493 359.909 193.586 363.142 177.636C366.376 161.685 365.626 145.184 360.958 129.592C356.291 114.001 347.851 99.8013 336.385 88.2511C324.919 76.7009 310.782 68.1567 295.225 63.3753C279.668 58.5939 263.173 57.7229 247.199 60.8395C231.225 63.956 216.267 70.9639 203.648 81.2424C193.98 89.1177 185.914 98.7268 179.845 109.543C176.769 115.024 179.558 121.733 185.357 124.16C191.155 126.586 197.753 123.794 201.015 118.421C205.515 111.012 211.26 104.4 218.024 98.8904C227.74 90.976 239.258 85.5799 251.558 83.1802C263.858 80.7804 276.559 81.4511 288.538 85.1328C300.517 88.8145 311.402 95.3935 320.231 104.287C329.06 113.181 335.559 124.114 339.153 136.12C342.746 148.125 343.324 160.831 340.834 173.113C338.344 185.395 332.864 196.873 324.878 206.531C319.319 213.255 312.666 218.951 305.223 223.396C299.827 226.619 296.986 233.196 299.37 239.012Z" fill="#7A67F8"/>
<path d="M331.598 289.977C334.713 282.741 329.691 274.64 321.818 274.906C299.698 275.652 276.639 280.496 254.52 289.122C232.179 297.833 211.603 310.089 194.451 324.81C188.608 329.826 190.236 338.986 197.202 342.269C201.521 344.305 206.628 343.348 210.152 340.127C224.526 326.986 242.261 316.083 261.657 308.519C281.016 300.97 301.275 297.042 320.465 297.065C325.255 297.071 329.704 294.376 331.598 289.977Z" fill="#67E5AD"/>
<path d="M310.54 238.615C313.655 231.38 308.632 223.279 300.759 223.545C281.149 224.207 260.773 228.09 240.942 235.001C220.423 242.151 201.094 252.33 184.256 264.794C178.375 269.148 179.028 277.917 185.217 281.82C189.279 284.381 194.516 283.952 198.308 281.006C212.445 270.02 228.966 261.089 246.584 254.95C264.132 248.835 282.212 245.683 299.408 245.704C304.198 245.709 308.646 243.014 310.54 238.615Z" fill="#67E5AD"/>
</g>
<defs>
<clipPath id="clip0_14289_126640">
<rect width="366" height="366" fill="white" transform="translate(0.5 0.75)"/>
</clipPath>
</defs>
</svg>
